<?xml version="1.0" encoding="UTF-8"?>
<svg width="122px" height="122px" viewBox="0 0 122 122" version="1.1" xmlns="http://www.w3.org/2000/svg" xmlns:xlink="http://www.w3.org/1999/xlink">
    <!-- Generator: Sketch 47 (45396) - http://www.bohemiancoding.com/sketch -->
    <title>calendar</title>
    <desc>Created with Sketch.</desc>
    <defs></defs>
    <g id="Page-4" stroke="none" stroke-width="1" fill="none" fill-rule="evenodd">
        <g id="calendar">
            <circle id="Oval-7" fill="#FFFFFF" cx="61" cy="61" r="61"></circle>
            <g id="calendar-copy-3" transform="translate(32.000000, 32.000000)" fill="#FF855A">
                <path d="M26,2.5 C27.654,2.5 29,3.846 29,5.5 C29,7.154 27.654,8.5 26,8.5 C25.447,8.5 25,8.947 25,9.5 C25,10.053 25.447,10.5 26,10.5 C28.757,10.5 31,8.257 31,5.5 C31,2.743 28.757,0.5 26,0.5 C25.447,0.5 25,0.947 25,1.5 C25,2.053 25.447,2.5 26,2.5 Z" id="Shape" fill-rule="nonzero"></path>
                <path d="M32,2.5 C33.654,2.5 35,3.846 35,5.5 C35,7.154 33.654,8.5 32,8.5 C31.447,8.5 31,8.947 31,9.5 C31,10.053 31.447,10.5 32,10.5 C34.757,10.5 37,8.257 37,5.5 C37,2.743 34.757,0.5 32,0.5 C31.447,0.5 31,0.947 31,1.5 C31,2.053 31.447,2.5 32,2.5 Z" id="Shape" fill-rule="nonzero"></path>
                <path d="M42.899,4.5 C42.434,2.221 40.415,0.5 38,0.5 C37.447,0.5 37,0.947 37,1.5 C37,2.053 37.447,2.5 38,2.5 C39.654,2.5 41,3.846 41,5.5 C41,7.154 39.654,8.5 38,8.5 C37.447,8.5 37,8.947 37,9.5 C37,10.053 37.447,10.5 38,10.5 C40.414,10.5 42.434,8.779 42.899,6.5 L56,6.5 L56,7.5 C55.448,7.5 55,7.948 55,8.5 C55,9.052 55.448,9.5 56,9.5 L56,13.5 C55.448,13.5 55,13.948 55,14.5 C55,15.052 55.448,15.5 56,15.5 L56,16.5 L2,16.5 L2,15.5 C2.552,15.5 3,15.052 3,14.5 C3,13.948 2.552,13.5 2,13.5 L2,9.5 C2.552,9.5 3,9.052 3,8.5 C3,7.948 2.552,7.5 2,7.5 L2,6.5 L16,6.5 L19,6.5 C19.553,6.5 20,6.053 20,5.5 C20,4.947 19.553,4.5 19,4.5 L17.184,4.5 C17.598,3.338 18.698,2.5 20,2.5 C21.654,2.5 23,3.846 23,5.5 C23,7.154 21.654,8.5 20,8.5 C19.447,8.5 19,8.947 19,9.5 C19,10.053 19.447,10.5 20,10.5 C22.757,10.5 25,8.257 25,5.5 C25,2.743 22.757,0.5 20,0.5 C17.586,0.5 15.566,2.221 15.101,4.5 L0,4.5 L0,18.5 L0,57.5 L58,57.5 L58,18.5 L58,4.5 L42.899,4.5 Z M56,55.5 L2,55.5 L2,18.5 L56,18.5 L56,55.5 Z" id="Shape" fill-rule="nonzero"></path>
                <circle id="Oval" fill-rule="nonzero" cx="8" cy="8.5" r="1"></circle>
                <circle id="Oval" fill-rule="nonzero" cx="8" cy="14.5" r="1"></circle>
                <circle id="Oval" fill-rule="nonzero" cx="5" cy="11.5" r="1"></circle>
                <circle id="Oval" fill-rule="nonzero" cx="11" cy="11.5" r="1"></circle>
                <circle id="Oval" fill-rule="nonzero" cx="14" cy="8.5" r="1"></circle>
                <circle id="Oval" fill-rule="nonzero" cx="14" cy="14.5" r="1"></circle>
                <circle id="Oval" fill-rule="nonzero" cx="20" cy="14.5" r="1"></circle>
                <circle id="Oval" fill-rule="nonzero" cx="17" cy="11.5" r="1"></circle>
                <circle id="Oval" fill-rule="nonzero" cx="23" cy="11.5" r="1"></circle>
                <circle id="Oval" fill-rule="nonzero" cx="26" cy="14.5" r="1"></circle>
                <circle id="Oval" fill-rule="nonzero" cx="32" cy="14.5" r="1"></circle>
                <circle id="Oval" fill-rule="nonzero" cx="29" cy="11.5" r="1"></circle>
                <circle id="Oval" fill-rule="nonzero" cx="35" cy="11.5" r="1"></circle>
                <circle id="Oval" fill-rule="nonzero" cx="44" cy="8.5" r="1"></circle>
                <circle id="Oval" fill-rule="nonzero" cx="38" cy="14.5" r="1"></circle>
                <circle id="Oval" fill-rule="nonzero" cx="44" cy="14.5" r="1"></circle>
                <circle id="Oval" fill-rule="nonzero" cx="41" cy="11.5" r="1"></circle>
                <circle id="Oval" fill-rule="nonzero" cx="47" cy="11.5" r="1"></circle>
                <circle id="Oval" fill-rule="nonzero" cx="50" cy="8.5" r="1"></circle>
                <circle id="Oval" fill-rule="nonzero" cx="50" cy="14.5" r="1"></circle>
                <circle id="Oval" fill-rule="nonzero" cx="53" cy="11.5" r="1"></circle>
                <polygon id="7" points="39.3927942 24.6191406 25.0314661 49 22.7463098 49 37.0197473 25.1992188 22.9396692 25.1992188 23.2209192 23.40625 39.5334192 23.40625"></polygon>
            </g>
        </g>
    </g>
</svg>