<?xml version="1.0" encoding="UTF-8"?>
<svg width="122px" height="122px" viewBox="0 0 122 122" version="1.1" xmlns="http://www.w3.org/2000/svg" xmlns:xlink="http://www.w3.org/1999/xlink">
    <!-- Generator: Sketch 47 (45396) - http://www.bohemiancoding.com/sketch -->
    <title>security</title>
    <desc>Created with Sketch.</desc>
    <defs></defs>
    <g id="Page-4" stroke="none" stroke-width="1" fill="none" fill-rule="evenodd">
        <g id="security">
            <circle id="Oval-7-Copy-2" fill="#FFFFFF" cx="61" cy="61" r="61"></circle>
            <g transform="translate(32.000000, 28.000000)" id="Shape" fill-rule="nonzero" fill="#FD8D63">
                <path d="M56.9268372,17.5087112 C56.8920126,15.6728086 56.858771,13.9384598 56.858771,12.2606004 C56.858771,10.9461131 55.7959883,9.88043275 54.4843682,9.88043275 C44.3298389,9.88043275 36.5984669,6.95504809 30.1540211,0.673944462 C29.2321197,-0.224806825 27.7650554,-0.224489469 26.8434705,0.673944462 C20.3996579,6.95504809 12.6695522,9.88043275 2.51565613,9.88043275 C1.20435262,9.88043275 0.141253349,10.9461131 0.141253349,12.2606004 C0.141253349,13.9387772 0.108328297,15.6737607 0.073187136,17.5099807 C-0.252264339,34.5951411 -0.698018889,57.9940928 27.7210498,67.8686147 C27.973053,67.9562049 28.2358203,68 28.4985875,68 C28.7613548,68 29.0244386,67.9562049 29.2761253,67.8686147 C57.69741,57.9937754 57.2522887,34.594189 56.9268372,17.5087112 Z M28.4989041,63.0939985 C4.12581781,54.2185122 4.49432512,34.7757165 4.82135953,17.6007444 C4.84098793,16.5699731 4.85998315,15.5709375 4.87327981,14.5915778 C14.3835544,14.1891708 21.9886083,11.3002821 28.4989041,5.61517241 C35.0098331,11.3002821 42.6161533,14.1894882 52.1270611,14.5915778 C52.1403578,15.5706201 52.159353,16.5690211 52.1789814,17.5991576 C52.5056992,34.7747644 52.8738899,54.2181949 28.4989041,63.0939985 Z"></path>
                <path d="M37.8568294,25.6996996 L26.1421512,37.2316402 L21.143211,32.3104068 C20.1953315,31.3775802 18.6584656,31.3775802 17.7109097,32.3104068 C16.7630301,33.2438705 16.7630301,34.7565278 17.7109097,35.6896729 L24.4260005,42.3003801 C24.8997785,42.7667934 25.5211266,43 26.1421512,43 C26.7631757,43 27.3845239,42.7667934 27.8583019,42.3003801 L41.2888072,29.0789657 C42.2370103,28.1458205 42.2370103,26.6328447 41.2891308,25.7000182 C40.3415748,24.766873 38.804709,24.7665544 37.8568294,25.6996996 Z"></path>
            </g>
        </g>
    </g>
</svg>