<?xml version="1.0" encoding="UTF-8"?>
<svg width="122px" height="122px" viewBox="0 0 122 122" version="1.1" xmlns="http://www.w3.org/2000/svg" xmlns:xlink="http://www.w3.org/1999/xlink">
    <!-- Generator: Sketch 47 (45396) - http://www.bohemiancoding.com/sketch -->
    <title>speed</title>
    <desc>Created with Sketch.</desc>
    <defs></defs>
    <g id="Page-4" stroke="none" stroke-width="1" fill="none" fill-rule="evenodd">
        <g id="speed">
            <circle id="Oval-7" fill="#FFFFFF" cx="61" cy="61" r="61"></circle>
            <g id="tools-and-utensils" transform="translate(29.000000, 27.000000)" fill-rule="nonzero" fill="#FD8D63">
                <path d="M57.1880332,9.83618793 C50.8608516,3.49317167 42.4481641,0 33.5,0 C24.5518359,0 16.1391484,3.49317167 9.8119668,9.83618793 C3.48478516,16.1792042 0,24.6126399 0,33.5831436 C0,43.2009099 4.12547266,52.3738308 11.3186816,58.7497743 C11.7302344,59.1147286 12.3591445,59.0758981 12.7231953,58.6631927 C13.0872461,58.2504874 13.0486426,57.6200163 12.6368281,57.2551932 C5.87074414,51.257716 1.99024023,42.6296029 1.99024023,33.5831436 C1.99024023,25.1457723 5.26774414,17.2131977 11.2192285,11.2469423 C17.1707129,5.28068697 25.0835176,1.99504863 33.5,1.99504863 C41.9164824,1.99504863 49.829418,5.28068697 55.7809023,11.2469423 C61.7323867,17.2131977 65.0098906,25.1456412 65.0098906,33.5831436 C65.0098906,42.6297341 61.1293867,51.257716 54.3631719,57.255062 C53.9513574,57.6200163 53.9127539,58.2503562 54.2768047,58.6630615 C54.4734863,58.8860746 54.7475059,58.9998113 55.0227031,58.9998113 C55.2569414,58.9998113 55.4920957,58.9172964 55.6814492,58.7496431 C62.8745273,52.3738308 67,43.2009099 67,33.5831436 C67,24.6126399 63.5153457,16.1792042 57.1880332,9.83618793 Z" id="Shape"></path>
                <path d="M46.6316962,54 L24.6140433,54 C24.0716685,54 23.6318527,54.4430965 23.6318527,54.9895172 C23.6318527,55.5359379 24.0716685,55.9790344 24.6140433,55.9790344 L46.631567,55.9790344 C47.4056685,55.9790344 48.0354898,56.6135539 48.0354898,57.3934298 L48.0354898,59.6068304 C48.0354898,60.3867064 47.4056685,61.0210957 46.631567,61.0210957 L20.3681747,61.0210957 C19.5940732,61.0210957 18.9643811,60.3865762 18.9643811,59.6068304 L18.9643811,57.3934298 C18.9643811,56.6135539 19.5942023,55.9790344 20.3681747,55.9790344 L21.340161,55.9790344 C21.8825358,55.9790344 22.3223515,55.5359379 22.3223515,54.9895172 C22.3223515,54.4430965 21.8825358,54 21.340161,54 L20.3681747,54 C18.5108736,54 17,55.5222741 17,57.3934298 L17,59.6068304 C17,61.4779861 18.5110027,63 20.3681747,63 L46.6316962,63 C48.4889973,63 50,61.4777259 50,59.6068304 L50,57.3934298 C49.9998708,55.5222741 48.4889973,54 46.6316962,54 Z" id="Shape"></path>
                <path d="M50.5951902,10.4448972 C45.615088,6.88281492 39.6843816,5 33.443898,5 C21.9281595,5 11.5798693,11.5385212 7.08052024,21.6580328 C6.87670539,22.1163955 7.07174543,22.6475988 7.53082742,22.8841403 C7.68305703,22.9625645 7.8477841,23 8.01038395,23 C8.33837562,23 8.65825724,22.8475931 8.85196777,22.5708243 C13.2167698,16.3320408 20.5075713,12.6073997 28.3549084,12.6073997 C34.0690365,12.6073997 39.5727022,14.592496 43.8520164,18.1969629 C44.2706811,18.549491 44.9099125,18.5115479 45.2789862,18.1119399 C45.6484588,17.7123319 45.6085733,17.1025775 45.1900416,16.7499225 C40.540989,12.834043 34.5620212,10.6775049 28.3550413,10.6775049 C23.2313514,10.6775049 18.3257021,12.1395195 14.1978199,14.7771354 C19.1250073,9.85113223 26.0238675,6.93002171 33.4441639,6.93002171 C39.2437799,6.93002171 44.7554227,8.67946476 49.3828042,11.9893968 C49.8296547,12.3089309 50.4631692,12.2222583 50.7982073,11.7958743 C51.1327136,11.3693635 51.0420406,10.7644313 50.5951902,10.4448972 Z" id="Shape"></path>
                <path d="M55.835512,15.3765751 C55.4910007,14.9449729 54.8617216,14.8738715 54.429306,15.2178127 C53.9971536,15.5618854 53.9262248,16.1904948 54.2706045,16.6222284 C57.8099378,21.0575851 59.7734414,26.3560148 59.9807009,32.001277 L53.5460518,32.001277 C53.1246901,29.1768059 52.23104,26.4695666 50.8843142,23.9418549 C50.6248122,23.4546596 50.0190883,23.2696121 49.5308771,23.5290466 C49.0429292,23.7883496 48.857909,24.3934338 49.117411,24.8807606 C50.4857181,27.4490828 51.3456803,30.2188808 51.6737424,33.1130075 C51.7309855,33.6183396 52.1589269,34 52.6679297,34 L60.999233,34 C61.5520564,34 62,33.5524953 62,33.0006385 C62.0001316,26.5247654 59.8683202,20.4304214 55.835512,15.3765751 Z" id="Shape"></path>
                <path d="M54.5517353,11.1663502 C54.1212937,10.8783602 53.5462822,10.9727592 53.2266861,11.3840403 L35.978955,33.5759121 C35.6381832,34.0143545 35.7108603,34.6509149 36.141302,34.9981539 C36.5717437,35.3453928 37.1968187,35.2710986 37.5375904,34.8327893 L47.827277,21.5936381 L36.1975091,43.6550289 C36.1095384,43.8018865 35.958825,44.0408796 35.8853637,44.134746 C35.5217169,44.6002166 35.0018668,44.8933992 34.421496,44.9605037 C33.8412559,45.0280076 33.2700351,44.8605127 32.8130585,44.4899736 C32.3560818,44.1194344 32.0682493,43.5899216 32.0023694,42.9987633 C31.9364895,42.4077381 32.1005357,41.8258998 32.4661432,41.3582988 L35.5747869,37.3585267 C35.9154279,36.9200843 35.8427509,36.2832576 35.4123092,35.9361518 C34.9819983,35.5891791 34.3567925,35.663207 34.0160207,36.1015163 L30.909207,40.0991582 C30.2145921,40.9876266 29.9015317,42.0984451 30.027148,43.2269717 C30.152895,44.3554983 30.702548,45.3665922 31.5749341,46.0738519 C32.3211812,46.6789904 33.2270302,47 34.1668649,47 C34.3256825,47 34.4855459,46.9908131 34.6456708,46.9723061 C35.7536038,46.8442218 36.746247,46.2842191 37.4406006,45.3958838 C37.6236004,45.1616839 37.8643758,44.7601223 37.91091,44.6819669 C37.9196679,44.6670548 37.928295,44.6520095 37.9362686,44.636698 L54.8816578,12.4913971 C55.1251783,12.029255 54.9820463,11.4542071 54.5517353,11.1663502 Z" id="Shape"></path>
                <path d="M34.8334087,42.4364936 C34.3427714,41.6853164 33.1381803,41.956387 33.0101192,42.847275 C32.9492506,43.270914 33.1671653,43.7054224 33.5510851,43.8951056 C33.9227521,44.0788239 34.3751819,44.0185123 34.6807104,43.7353794 C35.0369626,43.4054552 35.1056044,42.8409125 34.8334087,42.4364936 Z" id="Shape"></path>
            </g>
        </g>
    </g>
</svg>