<?xml version="1.0" encoding="UTF-8"?>
<svg width="122px" height="122px" viewBox="0 0 122 122" version="1.1" xmlns="http://www.w3.org/2000/svg" xmlns:xlink="http://www.w3.org/1999/xlink">
    <!-- Generator: Sketch 47 (45396) - http://www.bohemiancoding.com/sketch -->
    <title>like</title>
    <desc>Created with Sketch.</desc>
    <defs></defs>
    <g id="Page-4" stroke="none" stroke-width="1" fill="none" fill-rule="evenodd">
        <g id="like">
            <circle id="Oval-7-Copy" fill="#FFFFFF" cx="61" cy="61" r="61"></circle>
            <g transform="translate(32.000000, 27.000000)" fill-rule="nonzero" fill="#FD8D63">
                <circle id="Oval" cx="15.5" cy="37.5" r="1.5"></circle>
                <path d="M67,26.0422241 L67,25.9059969 C67,22.861265 64.5348711,20.3840591 61.5046914,20.3840591 L45.8202793,20.3840591 C47.8372148,16.8685806 48.9262266,12.9279837 48.9906094,8.85418377 C49.0014707,8.17094358 48.9961055,7.46561249 48.9903477,6.71886094 C48.9866836,6.23641132 48.9827578,5.72621657 48.9827578,5.17499585 C48.9827578,2.32592635 46.6815957,0.0073016029 43.8503223,0.000200954315 C43.3223047,-0.00505878538 41.5630313,0.082384387 40.1788008,1.53512449 C39.5487129,2.19640526 39.1134746,3.030074 38.9201953,3.94566319 C38.5461992,5.71648605 38.0795547,7.22839823 37.4935664,8.56779094 C35.3459023,13.476706 32.2852324,17.5775935 28.3967461,20.7564487 C27.3616484,21.6026093 26.262168,22.3828917 25.1141387,23.0917731 C24.6833496,21.5322603 23.2589453,20.3839277 21.5716445,20.3839277 L1.30859375,20.3839277 C0.585857422,20.3839277 0,20.9727555 0,21.6988626 L0,55.6850651 C0,56.4111721 0.585857422,57 1.30859375,57 L21.5716445,57 C23.491875,57 25.0718711,55.5129401 25.2336133,53.6249565 C27.7467676,55.8065651 30.9266504,57 34.2707617,57 L61.5045605,57 C64.5347402,57 67,54.5227941 67,51.4780623 C67,49.7945511 66.2465117,48.2847428 65.0604023,47.2710595 C66.2465117,46.2573762 67,44.7475679 67,43.0639252 L67,42.8990324 C67,41.2155212 66.2465117,39.7057129 65.0604023,38.6920296 C66.2463809,37.6783462 67,36.1684065 67,34.4850268 L67,34.4563612 C67,32.77285 66.2465117,31.2630417 65.0604023,30.2493584 C66.2465117,29.2358066 67,27.7258668 67,26.0422241 Z M22.631082,25.2604953 C22.631082,25.2627307 22.631082,25.2649661 22.631082,25.2672015 L22.631082,53.3058218 C22.631082,53.8926773 22.1559316,54.3702616 21.5716445,54.3702616 L16.8032598,54.3702616 L16.8032598,42.9136281 C16.8032598,42.1875211 16.2174023,41.5986932 15.494666,41.5986932 C14.7719297,41.5986932 14.1860723,42.1875211 14.1860723,42.9136281 L14.1860723,54.3702616 L2.6171875,54.3702616 L2.6171875,23.013929 L21.5716445,23.013929 C22.1558008,23.013929 22.631082,23.4915134 22.631082,24.0785003 L22.631082,25.2604953 Z M57.8801484,31.5642933 L61.5045605,31.5642933 C63.091623,31.5642933 64.3828125,32.8616081 64.3828125,34.4563612 L64.3828125,34.4850268 C64.3828125,36.0797799 63.091623,37.3770946 61.5045605,37.3770946 L57.8801484,37.3770946 C57.1574121,37.3770946 56.5715547,37.9659225 56.5715547,38.6920296 C56.5715547,39.4181366 57.1574121,40.0069645 57.8801484,40.0069645 L61.5045605,40.0069645 C63.0914922,40.0069645 64.3826816,41.3042793 64.3826816,42.8990324 L64.3826816,43.0639252 C64.3826816,44.6586783 63.0914922,45.9561246 61.5044297,45.9561246 L57.8800176,45.9561246 C57.1572813,45.9561246 56.5714238,46.5449524 56.5714238,47.2710595 C56.5714238,47.9971666 57.1572813,48.5859944 57.8800176,48.5859944 L61.5044297,48.5859944 C63.0913613,48.5859944 64.3825508,49.8833092 64.3825508,51.4780623 C64.3825508,53.0728154 63.0913613,54.3701302 61.5042988,54.3701302 L34.2708926,54.3701302 C31.3508965,54.3701302 28.5849219,53.2486222 26.4825352,51.2120509 L25.2482695,50.0163806 L25.2482695,26.0614222 C26.9452539,25.1113817 28.5570488,24.0156464 30.0483223,22.7964388 C34.2619941,19.3518352 37.572998,14.920636 39.8893398,9.62618206 C40.5483477,8.1200556 41.0686445,6.44048922 41.4803281,4.49149268 C41.5738926,4.0486226 41.7720137,3.66571355 42.0691953,3.35381098 C42.7132852,2.67780294 43.5553652,2.62954483 43.7818828,2.62954483 C43.8050449,2.62954483 43.8202246,2.6300708 43.8371055,2.6300708 C45.2311504,2.6300708 46.3653086,3.7716973 46.3654395,5.17499585 C46.3654395,5.73358021 46.3693652,6.25048112 46.3731602,6.73924244 C46.3786563,7.47008327 46.3840215,8.1604241 46.3736836,8.81250033 C46.3047207,13.1720356 44.9155176,17.3623387 42.3563008,20.9301516 C42.0690645,21.3306808 42.0291523,21.8588902 42.2530527,22.2982099 C42.4768223,22.7376612 42.9267168,23.013929 43.417832,23.013929 L61.5045605,23.013929 C63.0914922,23.013929 64.3826816,24.3112438 64.3826816,25.9059969 L64.3826816,26.0422241 L64.3828125,26.0422241 C64.3828125,27.6369772 63.091623,28.9344235 61.5045605,28.9344235 L57.8801484,28.9344235 C57.1574121,28.9344235 56.5715547,29.5232513 56.5715547,30.2493584 C56.5715547,30.9754655 57.1574121,31.5642933 57.8801484,31.5642933 Z" id="Shape"></path>
            </g>
        </g>
    </g>
</svg>