<?xml version="1.0" encoding="UTF-8"?>
<svg width="122px" height="122px" viewBox="0 0 122 122" version="1.1" xmlns="http://www.w3.org/2000/svg" xmlns:xlink="http://www.w3.org/1999/xlink">
    <!-- Generator: Sketch 47 (45396) - http://www.bohemiancoding.com/sketch -->
    <title>zoom</title>
    <desc>Created with Sketch.</desc>
    <defs></defs>
    <g id="Page-4" stroke="none" stroke-width="1" fill="none" fill-rule="evenodd">
        <g id="zoom">
            <circle id="Oval-7-Copy-2" fill="#FFFFFF" cx="61" cy="61" r="61"></circle>
            <g id="loupe" transform="translate(36.000000, 37.000000)" fill-rule="nonzero" fill="#FD8D63">
                <path d="M34.7419401,0 C24.6744802,0 16.4838802,8.19050324 16.4838802,18.2580994 C16.4838802,22.4005702 17.8714927,26.2244687 20.2049758,29.291486 L16.5063164,32.9901533 C16.4828499,33.0136199 16.4614439,33.0383456 16.4411826,33.0637581 C16.1384079,33.0006847 15.8272768,32.9676026 15.5108801,32.9676026 C14.3032153,32.9676026 13.167667,33.4379633 12.313373,34.2922592 L1.32431031,45.2813456 C0.470245205,46.1351836 0,47.2706199 0,48.4784017 C0,49.6861836 0.470245205,50.8217343 1.32419584,51.6753434 C2.1784899,52.5296393 3.3140382,53 4.52170298,53 C5.72936776,53 6.86491606,52.5296393 7.71921011,51.6753434 L18.7082728,40.686257 C19.5623379,39.8325335 20.0325831,38.6970972 20.0325831,37.4892009 C20.0325831,37.172689 19.9995011,36.8614428 19.9364278,36.5586674 C19.9618403,36.5385205 19.9864514,36.5171145 20.0099179,36.4936479 L23.7084628,32.795095 C26.775588,35.1286976 30.5994782,36.5161987 34.7419401,36.5161987 C44.8094,36.5161987 53,28.3256955 53,18.2580994 C53,8.19050324 44.8094,0 34.7419401,0 Z M6.50490604,50.4612657 C5.97502165,50.9911512 5.27079855,51.2829374 4.52170298,51.2829374 C3.7726074,51.2829374 3.0683843,50.9911512 2.53838545,50.4611512 C2.00873,49.9317235 1.71705893,49.2276134 1.71705893,48.4784017 C1.71705893,47.7291901 2.00873,47.0250799 2.53849992,46.4955378 L12.4628716,36.5711447 L16.4289343,40.537216 L6.50490604,50.4612657 Z M17.6370569,39.3170713 L13.6846162,35.364622 C14.2083192,34.9140648 14.8588556,34.6862678 15.5108801,34.6862678 C16.2290686,34.6862678 16.9474861,34.9597387 17.4941976,35.5065659 C18.0238531,36.0359935 18.3155242,36.7401037 18.3155242,37.4893153 C18.3155242,38.1676695 18.0755938,38.8087063 17.6370569,39.3170713 Z M19.2001529,34.8752592 C19.0538595,34.6696695 18.8903955,34.4742678 18.7083872,34.2923737 C18.5261501,34.1102505 18.3305198,33.9466717 18.1248161,33.8002635 L21.311792,30.6132808 C21.6552038,30.9863413 22.0139546,31.3450929 22.3870143,31.6885054 L19.2001529,34.8752592 Z M34.7419401,34.7991361 C25.621152,34.7991361 18.2009391,27.3789071 18.2009391,18.2580994 C18.2009391,9.13729158 25.621152,1.71706263 34.7419401,1.71706263 C43.8627282,1.71706263 51.2829411,9.13729158 51.2829411,18.2580994 C51.2829411,27.3789071 43.8627282,34.7991361 34.7419401,34.7991361 Z" id="Shape"></path>
                <path d="M34.5,4 C26.5046431,4 20,10.5046431 20,18.5 C20,26.4953569 26.5046431,33 34.5,33 C42.4953569,33 49,26.4953569 49,18.5 C49,10.5046431 42.4953569,4 34.5,4 Z M34.5,31.2941176 C27.4453804,31.2941176 21.7058824,25.5547333 21.7058824,18.5 C21.7058824,11.4452667 27.4453804,5.70588235 34.5,5.70588235 C41.5546196,5.70588235 47.2941176,11.4452667 47.2941176,18.5 C47.2941176,25.5547333 41.5546196,31.2941176 34.5,31.2941176 Z" id="Shape"></path>
                <path d="M40.2646259,8.13459901 C39.8861885,7.88462313 39.379497,7.9928134 39.1328038,8.37639708 C38.8861107,8.75987024 38.9929892,9.27341485 39.3714266,9.52328022 C41.8715122,11.1743145 43.3641038,13.9627281 43.3641038,16.9823306 C43.3641038,19.0452394 42.6515074,21.055766 41.3575136,22.643367 C41.069814,22.9962286 41.1189999,23.5187246 41.4673367,23.8102526 C41.6198023,23.9378928 41.8043313,24 41.9877698,24 C42.2233389,24 42.457163,23.8973353 42.6188986,23.698968 C44.1543507,21.815087 45,19.4297071 45,16.9824411 C45.0001091,13.4003376 43.2298513,10.0928539 40.2646259,8.13459901 Z" id="Shape"></path>
                <path d="M37.2069284,7.19145445 C36.4730315,7.06442594 35.7196517,7 34.9676911,7 C34.4331386,7 34,7.40819303 34,7.91168784 C34,8.41518264 34.4331386,8.82337568 34.9676911,8.82337568 C35.6027546,8.82337568 36.2384631,8.87771227 36.8572694,8.9848052 C36.9164921,8.99501611 36.9751987,9 37.0332601,9 C37.4911716,9 37.8981179,8.69233574 37.9839199,8.25290221 C38.080431,7.75767337 37.7325782,7.28250167 37.2069284,7.19145445 Z" id="Shape"></path>
            </g>
        </g>
    </g>
</svg>