<?xml version="1.0" encoding="UTF-8"?>
<svg width="122px" height="122px" viewBox="0 0 122 122" version="1.1" xmlns="http://www.w3.org/2000/svg" xmlns:xlink="http://www.w3.org/1999/xlink">
    <!-- Generator: Sketch 47 (45396) - http://www.bohemiancoding.com/sketch -->
    <title>team</title>
    <desc>Created with Sketch.</desc>
    <defs></defs>
    <g id="Page-4" stroke="none" stroke-width="1" fill="none" fill-rule="evenodd">
        <g id="team">
            <circle id="Oval-7-Copy" fill="#FFFFFF" cx="61" cy="61" r="61"></circle>
            <g transform="translate(30.000000, 29.000000)" fill-rule="nonzero" fill="#FD8D63">
                <circle id="Oval" cx="49" cy="38" r="1"></circle>
                <circle id="Oval" cx="6" cy="38" r="1"></circle>
                <path d="M54.8719958,55.7339219 L45.1880524,55.7339219 L45.1288499,27.8925625 C45.1274967,27.2675898 44.6228662,26.7620156 44.0010713,26.7620156 C44.0002819,26.7620156 43.9993798,26.7620156 43.9985904,26.7620156 C43.3756678,26.763375 42.8718267,27.271668 42.8731799,27.8974336 L42.9323823,55.7339219 L39.6566257,55.7339219 L39.6276447,43.3468437 C39.6261788,42.7219844 39.1215483,42.2165234 38.4998661,42.2165234 C38.498964,42.2165234 38.4980618,42.2165234 38.4971597,42.2165234 C37.8742371,42.2179961 37.370396,42.7264023 37.3719747,43.352168 L37.4009557,55.7339219 L34.6624191,55.7339219 L34.6624191,40.7400156 C37.8548412,40.4564727 40.3649127,37.8210977 40.3649127,34.6210156 L40.3649127,23.6413437 C40.3649127,21.8954531 39.9961659,20.1841133 39.2908109,18.6036133 C41.5180638,18.7530312 43.5912775,19.6633594 45.1862481,21.2105547 C46.9316494,22.9036562 47.8956909,25.1550078 47.9006526,27.5510195 L47.9212889,33.9985352 C47.9233187,34.6230547 48.4278364,35.1279492 49.0490676,35.1279492 C49.050308,35.1279492 49.0515484,35.1279492 49.0527889,35.1279492 C49.6755987,35.1259102 50.1789888,34.6170508 50.1770717,33.9912852 L50.1564354,27.5450156 C50.1500078,24.5317344 48.9413755,21.7032148 46.7531398,19.5805508 C45.503235,18.3681016 44.0186629,17.4701211 42.4006879,16.9253516 C43.5467347,15.829582 44.2619004,14.283293 44.2582919,12.572293 C44.2511876,9.27105078 41.5755748,6.59025 38.2907968,6.59025 C38.2865117,6.59025 38.2821138,6.59025 38.2779414,6.59025 C37.3210042,6.59240234 36.3694797,6.82780078 35.526324,7.27107031 C34.9744443,7.56129687 34.7612027,8.24596875 35.0501107,8.80036719 C35.3391314,9.35476562 36.0208054,9.56898047 36.5724596,9.27875391 C37.1031391,8.99974219 37.678587,8.85757422 38.2829032,8.85621484 C40.332887,8.85519531 41.9983367,10.5209961 42.0027346,12.5770508 C42.0071325,14.6331055 40.3455168,16.3094414 38.2988033,16.3138594 C38.2502009,16.3139727 38.2027261,16.3181641 38.155928,16.3242812 C38.0958234,16.3267734 38.0358316,16.3289258 37.9756142,16.3323242 C36.346137,14.0920742 34.0585541,12.4669414 31.4531948,11.6422539 C32.8363898,10.4231211 33.7122479,8.63633594 33.7122479,6.64677734 C33.7117968,2.98167578 30.7437802,0 27.0954428,0 C23.4469927,0 20.4788633,2.98167578 20.4788633,6.64677734 C20.4788633,8.73273828 21.4412134,10.5964414 22.9424749,11.8159141 C20.5509212,12.6829687 18.4550414,14.236168 16.932918,16.3258672 C16.7542957,16.3178242 16.575899,16.3130664 16.3984044,16.3130664 C16.3140549,16.3130664 16.2299311,16.3144258 16.14592,16.3162383 C16.1252837,16.3151055 16.1049857,16.3130664 16.0841239,16.3130664 C14.0374103,16.3130664 12.3722989,14.6403555 12.3722989,12.5843008 C12.3722989,10.5282461 14.0374103,8.85553516 16.0841239,8.85553516 C16.7027614,8.85553516 17.3147456,9.01118359 17.8537699,9.30560156 C18.4010262,9.60432422 19.0857449,9.40109766 19.3834487,8.85134375 C19.6809269,8.30158984 19.4785109,7.61363281 18.9312547,7.31468359 C18.0625009,6.84014844 17.0779358,6.58934375 16.0840111,6.58934375 C12.7934821,6.58934375 10.1164033,9.27864062 10.1164033,12.5841875 C10.1164033,14.3842266 10.9114077,16.0002969 12.1658233,17.1001445 C7.9017803,18.7518984 4.87862086,22.822207 4.87862086,27.5695977 L4.87862086,33.9949102 C4.87862086,34.6206758 5.38358964,35.1279492 6.00651227,35.1279492 C6.6294349,35.1279492 7.13440368,34.6206758 7.13440368,33.9949102 L7.13440368,27.5695977 C7.13440368,22.8706914 10.868782,19.0048555 15.6081361,18.6141484 C14.9059386,20.1915898 14.5386578,21.8990781 14.5386578,23.6413437 L14.5386578,34.6210156 C14.5386578,37.8844219 17.148866,40.5606914 20.4312758,40.7541758 L20.4312758,55.7338086 L17.3586118,55.7338086 L17.3586118,43.3491094 C17.3586118,42.7233437 16.8536431,42.2160703 16.2307204,42.2160703 C15.6077978,42.2160703 15.102829,42.7233437 15.102829,43.3491094 L15.102829,55.7339219 L12.3303497,55.7339219 L12.3303497,27.9063828 C12.3303497,27.2806172 11.8253809,26.7733437 11.2024583,26.7733437 C10.5795357,26.7733437 10.0745669,27.2806172 10.0745669,27.9063828 L10.0745669,55.7339219 L1.12789141,55.7339219 C0.504968778,55.7339219 0,56.2411953 0,56.8669609 C0,57.4927266 0.504856011,58 1.12789141,58 L54.8721086,58 C55.4950312,58 56,57.4927266 56,56.8669609 C55.9997745,56.2411953 55.4949185,55.7339219 54.8719958,55.7339219 Z M22.7345334,6.64677734 C22.7345334,4.23128125 24.6908081,2.26607812 27.0953301,2.26607812 C29.499852,2.26607812 31.456014,4.23128125 31.456014,6.64677734 C31.456014,9.06227344 29.4997392,11.0274766 27.0953301,11.0274766 C24.6909209,11.0274766 22.7345334,9.06227344 22.7345334,6.64677734 Z M33.534415,22.8902891 C32.9114923,22.8902891 32.4065235,23.3975625 32.4065235,24.0233281 L32.4065235,55.7339219 L28.3895522,55.7339219 L28.3895522,39.9711758 C28.3895522,39.3454102 27.8845834,38.8381367 27.2616608,38.8381367 C26.6387381,38.8381367 26.1337694,39.3454102 26.1337694,39.9711758 L26.1337694,55.7340352 L22.6870586,55.7340352 L22.6870586,24.0233281 C22.6870586,23.3975625 22.1820898,22.8902891 21.5591672,22.8902891 C20.9362446,22.8902891 20.4312758,23.3975625 20.4312758,24.0233281 L20.4312758,38.4826602 C18.3939219,38.2968789 16.7943278,36.6362891 16.7943278,34.6211289 L16.7943278,23.641457 C16.7943278,21.6805586 17.3619948,19.7718828 18.4359838,18.1219414 C20.4039863,15.0985781 23.7743541,13.2935547 27.4516725,13.2935547 C31.1350803,13.2935547 34.5084927,15.1032227 36.4753675,18.1345156 C37.5440565,19.781625 38.1090171,21.6858828 38.1090171,23.641457 L38.1090171,34.6211289 C38.1090171,36.5731914 36.6080938,38.1923203 34.6623064,38.4607969 L34.6623064,24.0233281 C34.6624191,23.3975625 34.1573376,22.8902891 33.534415,22.8902891 Z" id="Shape"></path>
            </g>
        </g>
    </g>
</svg>