<?xml version="1.0" encoding="UTF-8"?>
<svg width="107px" height="107px" viewBox="0 0 107 107" version="1.1" xmlns="http://www.w3.org/2000/svg" xmlns:xlink="http://www.w3.org/1999/xlink">
    <!-- Generator: Sketch 47 (45396) - http://www.bohemiancoding.com/sketch -->
    <title>montaj</title>
    <desc>Created with Sketch.</desc>
    <defs></defs>
    <g id="pages" stroke="none" stroke-width="1" fill="none" fill-rule="evenodd">
        <g id="перила" transform="translate(-749.000000, -3172.000000)">
            <g id="montaj" transform="translate(750.000000, 3173.000000)">
                <circle id="Oval-4" stroke="#979797" fill="#FFFFFF" cx="52.5" cy="52.5" r="52.5"></circle>
                <g id="Group-10" transform="translate(30.000000, 32.000000)">
                    <rect id="Rectangle-20" fill="#FD9B66" x="5" y="17" width="6" height="28"></rect>
                    <rect id="Rectangle-22" fill="#FD9B66" x="33" y="0" width="13" height="4"></rect>
                    <path d="M6.6085616,30.9802264 L30.8008666,30.9802264 L30.8008666,30.9802264 C35.7714294,30.9802264 39.8008666,26.9507892 39.8008666,21.9802264 L39.8008666,2.96901959" id="Path-2" stroke="#FD9B66" stroke-width="2"></path>
                    <g id="Group-15" transform="translate(0.000000, 38.000000)" stroke="#FD9B66" stroke-linecap="square">
                        <path d="M20.5,0.5 L20.5,4.5" id="Line-12-Copy"></path>
                        <path d="M13.5,2.5 L19.5,2.5" id="Line-11-Copy" stroke-width="2"></path>
                        <path d="M0.91886117,2.5 L2.5,2.5" id="Line-11-Copy-2" stroke-width="2"></path>
                    </g>
                    <g id="Group-14" transform="translate(0.000000, 20.000000)" stroke="#FD9B66" stroke-linecap="square">
                        <path d="M20.5,0.5 L20.5,4.5" id="Line-12"></path>
                        <path d="M13.5,2.5 L19.5,2.5" id="Line-11" stroke-width="2"></path>
                        <path d="M0.91886117,2.5 L2.5,2.5" id="Line-11-Copy-3" stroke-width="2"></path>
                    </g>
                </g>
            </g>
        </g>
    </g>
</svg>