<?xml version="1.0" encoding="UTF-8"?>
<svg width="24px" height="24px" viewBox="0 0 24 24" version="1.1" xmlns="http://www.w3.org/2000/svg" xmlns:xlink="http://www.w3.org/1999/xlink">
    <!-- Generator: Sketch 47 (45396) - http://www.bohemiancoding.com/sketch -->
    <title>clock copy</title>
    <desc>Created with Sketch.</desc>
    <defs></defs>
    <g id="pages" stroke="none" stroke-width="1" fill="none" fill-rule="evenodd">
        <g id="perila" transform="translate(-123.000000, -7715.000000)" fill-rule="nonzero" fill="#FE9C67">
            <g id="Group-22" transform="translate(123.000000, 7444.000000)">
                <g id="clock-copy" transform="translate(0.000000, 271.000000)">
                    <path d="M12,0 C5.3832,0 0,5.3832 0,12 C0,18.6168 5.3832,24 12,24 C18.6168,24 24,18.6168 24,12 C24,5.3832 18.6168,0 12,0 Z M12,23.2 C5.8244,23.2 0.8,18.1756 0.8,12 C0.8,5.8244 5.8244,0.8 12,0.8 C18.1756,0.8 23.2,5.8244 23.2,12 C23.2,18.1756 18.1756,23.2 12,23.2 Z" id="Shape"></path>
                    <path d="M11.875,10.6913684 L11.875,6.42105263 C11.875,6.18821053 11.707,6 11.5,6 C11.293,6 11.125,6.18821053 11.125,6.42105263 L11.125,10.6913684 C10.600375,10.8446316 10.18975,11.3056842 10.05325,11.8947368 L7.375,11.8947368 C7.168,11.8947368 7,12.0829474 7,12.3157895 C7,12.5486316 7.168,12.7368421 7.375,12.7368421 L10.05325,12.7368421 C10.220875,13.4610526 10.80325,14 11.5,14 C12.32725,14 13,13.2446316 13,12.3157895 C13,11.5330526 12.52,10.8795789 11.875,10.6913684 Z M11.5,13.1578947 C11.086375,13.1578947 10.75,12.7802105 10.75,12.3157895 C10.75,11.8513684 11.086375,11.4736842 11.5,11.4736842 C11.913625,11.4736842 12.25,11.8513684 12.25,12.3157895 C12.25,12.7802105 11.913625,13.1578947 11.5,13.1578947 Z" id="Shape"></path>
                    <path d="M12.5,4 C12.776,4 13,3.851 13,3.66666667 L13,3.33333333 C13,3.149 12.776,3 12.5,3 C12.224,3 12,3.149 12,3.33333333 L12,3.66666667 C12,3.851 12.224,4 12.5,4 Z" id="Shape"></path>
                    <path d="M12.5,20 C12.224,20 12,20.149 12,20.3333333 L12,20.6666667 C12,20.851 12.224,21 12.5,21 C12.776,21 13,20.851 13,20.6666667 L13,20.3333333 C13,20.149 12.776,20 12.5,20 Z" id="Shape"></path>
                    <path d="M20.6666667,12 L20.3333333,12 C20.1493333,12 20,12.2235 20,12.5 C20,12.7765 20.1493333,13 20.3333333,13 L20.6666667,13 C20.8506667,13 21,12.7765 21,12.5 C21,12.2235 20.8506667,12 20.6666667,12 Z" id="Shape"></path>
                    <path d="M3.66666667,12 L3.33333333,12 C3.14933333,12 3,12.2235 3,12.5 C3,12.7765 3.14933333,13 3.33333333,13 L3.66666667,13 C3.85066667,13 4,12.7765 4,12.5 C4,12.2235 3.85066667,12 3.66666667,12 Z" id="Shape"></path>
                    <path d="M18.3694367,5.10819676 L18.1083102,5.36938354 C17.9638966,5.51383055 17.9638966,5.7473101 18.1083102,5.8917571 C18.1803324,5.96379589 18.2748846,6 18.3694367,6 C18.4639889,6 18.5585411,5.96379589 18.6305633,5.8917571 L18.8916898,5.63057032 C19.0361034,5.48612332 19.0361034,5.25264376 18.8916898,5.10819676 C18.7472761,4.96374976 18.5138504,4.96411919 18.3694367,5.10819676 Z" id="Shape"></path>
                    <path d="M5.36943675,18.1081968 L5.10831025,18.3693835 C4.96389658,18.5138305 4.96389658,18.7473101 5.10831025,18.8917571 C5.18033241,18.9637959 5.27488458,19 5.36943675,19 C5.46398892,19 5.55854109,18.9637959 5.63056325,18.8917571 L5.89168975,18.6305703 C6.03610342,18.4861233 6.03610342,18.2526438 5.89168975,18.1081968 C5.74727608,17.9637498 5.51348107,17.9641192 5.36943675,18.1081968 Z" id="Shape"></path>
                    <path d="M18.6305633,18.1083203 C18.4861496,17.9638932 18.2527239,17.9638932 18.1083102,18.1083203 C17.9638966,18.2527473 17.9638966,18.4861945 18.1083102,18.6306215 L18.3694367,18.8917721 C18.4414589,18.9638009 18.5360111,19 18.6305633,19 C18.7251154,19 18.8196676,18.9638009 18.8916898,18.8917721 C19.0361034,18.7473451 19.0361034,18.5138979 18.8916898,18.3694709 L18.6305633,18.1083203 Z" id="Shape"></path>
                    <path d="M5.63056325,5.10832025 C5.48614958,4.96389325 5.25272392,4.96389325 5.10831025,5.10832025 C4.96389658,5.25274725 4.96389658,5.48619448 5.10831025,5.63062148 L5.36943675,5.89177209 C5.44145891,5.9638009 5.53601108,6 5.63056325,6 C5.72511542,6 5.81966759,5.9638009 5.89168975,5.89177209 C6.03610342,5.74734509 6.03610342,5.51389787 5.89168975,5.36947087 L5.63056325,5.10832025 Z" id="Shape"></path>
                </g>
            </g>
        </g>
    </g>
</svg>