<?xml version="1.0" encoding="UTF-8"?>
<svg width="105px" height="105px" viewBox="0 0 105 105" version="1.1" xmlns="http://www.w3.org/2000/svg" xmlns:xlink="http://www.w3.org/1999/xlink">
    <!-- Generator: Sketch 47 (45396) - http://www.bohemiancoding.com/sketch -->
    <title>q-metal</title>
    <desc>Created with Sketch.</desc>
    <defs></defs>
    <g id="Page-4" stroke="none" stroke-width="1" fill="none" fill-rule="evenodd">
        <g id="q-metal">
            <circle id="Oval-4" fill="#FFFFFF" cx="52.5" cy="52.5" r="52.5"></circle>
            <g id="pipe" transform="translate(26.000000, 44.000000)" fill-rule="nonzero" fill="#FE8065">
                <path d="M49.2999899,0 L45.8999696,0 C44.9649489,0 44.1999595,0.777261502 44.1999595,1.72728208 L44.1999595,2.59087167 L6.80004051,2.59087167 L6.80004051,1.72728208 C6.80004051,0.777261502 6.03505114,0 5.10003038,0 L1.70001013,0 C0.764989367,0 0,0.777364396 0,1.72728208 L0,17.2727179 C0,18.2227385 0.764989367,19 1.70001013,19 L5.10003038,19 C6.03505114,19 6.80004051,18.2227385 6.80004051,17.2727179 L6.80004051,16.4091283 L44.1999595,16.4091283 L44.1999595,17.2727179 C44.1999595,18.2227385 44.9649489,19 45.8999696,19 L49.2999899,19 C50.2350106,19 51,18.2227385 51,17.2727179 L51,1.72728208 C51,0.777364396 50.2349094,0 49.2999899,0 Z M5.10003038,17.2727179 L1.70001013,17.2727179 L1.70001013,1.72728208 L5.10003038,1.72728208 L5.10003038,3.45456416 L5.10003038,15.5454358 L5.10003038,17.2727179 Z M6.80004051,14.6818462 L6.80004051,7.77271792 L9.35000506,7.77271792 C9.85999797,7.77271792 10.1999595,7.42730266 10.1999595,6.90912833 C10.1999595,6.39095399 9.85999797,6.04553873 9.35000506,6.04553873 L6.80004051,6.04553873 L6.80004051,4.31825665 L44.1999595,4.31825665 L44.1999595,6.04553873 L40.7999392,6.04553873 C40.2899463,6.04553873 39.9499848,6.39095399 39.9499848,6.90912833 C39.9499848,7.42730266 40.2899463,7.77271792 40.7999392,7.77271792 L44.1999595,7.77271792 L44.1999595,14.6818462 L6.80004051,14.6818462 Z M49.2999899,17.2727179 L45.8999696,17.2727179 L45.8999696,15.5454358 L45.8999696,3.45456416 L45.8999696,1.72728208 L49.2999899,1.72728208 L49.2999899,17.2727179 Z" id="Shape"></path>
                <path d="M22.2000381,6 L15.7999619,6 C15.3199657,6 15,6.39997617 15,7 C15,7.60002383 15.3199657,8 15.7999619,8 L22.2000381,8 C22.6800343,8 23,7.60002383 23,7 C23,6.40009532 22.6800343,6 22.2000381,6 Z" id="Shape"></path>
                <path d="M13,6 C12.3999762,6 12,6.39997617 12,7 C12,7.60002383 12.3999762,8 13,8 C13.6000238,8 14,7.60002383 14,7 C14,6.40009532 13.6000238,6 13,6 Z" id="Shape"></path>
                <path d="M35.166799,6 L26.8333002,6 C26.3333002,6 26,6.39997617 26,7 C26,7.60002383 26.3333002,8 26.8333002,8 L35.1666997,8 C35.6666997,8 36,7.60002383 36,7 C36.0000993,6.40009532 35.666799,6 35.166799,6 Z" id="Shape"></path>
            </g>
        </g>
    </g>
</svg>