<?xml version="1.0" encoding="UTF-8"?>
<svg width="105px" height="105px" viewBox="0 0 105 105" version="1.1" xmlns="http://www.w3.org/2000/svg" xmlns:xlink="http://www.w3.org/1999/xlink">
    <!-- Generator: Sketch 47 (45396) - http://www.bohemiancoding.com/sketch -->
    <title>svarka</title>
    <desc>Created with Sketch.</desc>
    <defs></defs>
    <g id="Page-4" stroke="none" stroke-width="1" fill="none" fill-rule="evenodd">
        <g id="svarka">
            <circle id="Oval-4-Copy" fill="#FFFFFF" cx="52.5" cy="52.5" r="52.5"></circle>
            <g id="welding" transform="translate(26.000000, 25.000000)" fill-rule="nonzero" fill="#FE8065">
                <path d="M48.8647308,16.0413677 L17.045871,16.0413677 C16.4182555,16.0413677 15.9090037,16.5549552 15.9090037,17.1877817 L15.9090037,41.0958631 C12.4057138,40.9012134 10.0535673,40.5151365 8.34320586,39.8873589 C5.94780489,39.0095014 4.81242915,37.6499609 4.58859276,35.3084705 C5.88867629,34.8233501 6.81843364,33.5611345 6.81843364,32.0840737 L6.81843364,20.6251975 C7.44604914,20.6251975 7.95455514,20.1116101 7.95455514,19.4787835 L7.95455514,17.1876743 C7.95455514,16.5548478 7.44604914,16.0412603 6.81843364,16.0412603 L6.81843364,14.8957057 C6.81843364,14.2628792 6.30907534,13.7501511 5.68145983,13.7501511 L4.54523178,13.7501511 L4.54523178,8.54778196 L12.103572,2.01605816 C12.5796904,1.60398506 12.6345575,0.880601268 12.22673,0.399670285 C11.8180501,-0.0802938943 11.100623,-0.135723956 10.6236523,0.275489759 L2.66920369,7.15053619 C2.41788049,7.3687115 2.27213647,7.68593043 2.27213647,8.0208741 L2.27213647,13.7502585 L1.1361215,13.7502585 C0.508505996,13.7502585 0,14.2629866 0,14.8958131 L0,32.0840737 C0,33.5913202 0.9680045,34.8753426 2.30974439,35.3369375 C2.57278678,38.6855148 4.26066872,40.828918 7.56579788,42.0407523 C9.6906988,42.8195662 12.4881743,43.2106919 15.9090037,43.395029 L15.9090037,52.7088908 C15.9090037,53.3417173 16.418362,53.853586 17.045871,53.853586 L18.1819925,53.853586 C18.1819925,54.4864125 18.6904985,55 19.318114,55 C19.9457295,55 20.4550878,54.4864125 20.4550878,53.853586 L45.4556205,53.853586 C45.4556205,54.4864125 45.9649788,55 46.5908897,55 C47.2199968,55 47.7294616,54.4864125 47.7294616,53.853586 L48.8647308,53.853586 C49.4923463,53.853586 50,53.3416099 50,52.7088908 L50,17.1876743 C50,16.5549552 49.4923463,16.0413677 48.8647308,16.0413677 Z M3.40911028,33.228769 C2.78245361,33.228769 2.27224301,32.7151815 2.27224301,32.0840737 L4.54523178,32.0840737 C4.54523178,32.7151815 4.03587348,33.228769 3.40911028,33.228769 Z M4.54523178,29.7912458 L2.27224301,29.7912458 L2.27224301,16.0413677 L4.54523178,16.0413677 L4.54523178,29.7912458 Z M47.7294616,51.5624768 L18.1819925,51.5624768 L18.1819925,43.4856937 C18.9751681,43.5092193 19.7975351,43.5226471 20.647389,43.5310261 C21.1134928,44.8704785 22.3786319,45.8339518 23.8643046,45.8339518 C25.743742,45.8339518 27.2743738,44.2914706 27.2743738,42.3966434 C27.2743738,40.49999 25.743742,38.9591202 23.8643046,38.9591202 C22.3869418,38.9591202 21.1259578,39.910777 20.6541009,41.2401317 C19.7801694,41.2300339 18.9578024,41.213276 18.1820991,41.1897505 L18.1820991,32.0839663 L47.7294616,32.0839663 L47.7294616,51.5624768 Z M23.2958177,41.4045957 C23.4639347,41.3072708 23.6570882,41.250122 23.8643046,41.250122 C24.4910679,41.250122 25.0004262,41.7637094 25.0004262,42.396536 C25.0004262,43.0276437 24.4910679,43.5410164 23.8643046,43.5410164 C23.6570882,43.5410164 23.4639347,43.483975 23.2958177,43.3865427 C23.635461,43.1886702 23.8643046,42.8194587 23.8643046,42.3964285 C23.8643046,41.9720019 23.6353544,41.602683 23.2958177,41.4045957 Z M47.7294616,29.7913532 L18.1819925,29.7913532 L18.1819925,18.3333363 L47.7294616,18.3333363 L47.7294616,29.7913532 Z" id="Shape"></path>
                <path d="M32.152781,41 L44.847219,41 C45.4827847,41 46,40.5516692 46,39.9992498 C46,39.4468305 45.4827847,39 44.847219,39 L32.152781,39 C31.5154844,39 31,39.4469242 31,39.9992498 C31,40.5515754 31.5155925,41 32.152781,41 Z" id="Shape"></path>
                <path d="M32.152781,36 L44.847219,36 C45.4827847,36 46,35.5530758 46,35.0007502 C46,34.4484246 45.4827847,34 44.847219,34 L32.152781,34 C31.5154844,34 31,34.4483308 31,35.0007502 C31,35.5531695 31.5155925,36 32.152781,36 Z" id="Shape"></path>
                <path d="M24.4995626,28 C26.4288058,28 28,26.4294844 28,24.5 C28,22.56975 26.4288058,21 24.4995626,21 C22.5695538,21 21,22.56975 21,24.5 C21,26.4294844 22.5695538,28 24.4995626,28 Z M24.4995626,23.3328594 C25.1429353,23.3328594 25.6657918,23.8566563 25.6657918,24.5001094 C25.6657918,25.1426875 25.1429353,25.6664844 24.4995626,25.6664844 C23.8561899,25.6664844 23.3324584,25.1426875 23.3324584,24.5001094 C23.3324584,23.8566563 23.8561899,23.3328594 24.4995626,23.3328594 Z" id="Shape"></path>
                <path d="M32.5,28 C34.431125,28 36,26.4294844 36,24.5 C36,22.56975 34.431125,21 32.5,21 C30.5722656,21 29,22.56975 29,24.5 C29,26.4294844 30.5722656,28 32.5,28 Z M32.5,23.3328594 C33.1443281,23.3328594 33.669,23.8566563 33.669,24.5001094 C33.669,25.1426875 33.1443281,25.6664844 32.5,25.6664844 C31.8574219,25.6664844 31.3345,25.1426875 31.3345,24.5001094 C31.3345,23.8566563 31.8574219,23.3328594 32.5,23.3328594 Z" id="Shape"></path>
                <path d="M41.5,28 C43.431125,28 45,26.4294844 45,24.5 C45,22.56975 43.431125,21 41.5,21 C39.5705156,21 38,22.56975 38,24.5 C38,26.4294844 39.5705156,28 41.5,28 Z M41.5,23.3328594 C42.1425781,23.3328594 42.6655,23.8566563 42.6655,24.5001094 C42.6655,25.1426875 42.1425781,25.6664844 41.5,25.6664844 C40.8574219,25.6664844 40.3345,25.1426875 40.3345,24.5001094 C40.3345,23.8566563 40.8574219,23.3328594 41.5,23.3328594 Z" id="Shape"></path>
                <path d="M32.1655,47.66725 L33.331,47.66725 L33.331,48.8345 C33.331,49.4788281 33.8539219,50 34.5,50 C35.1425781,50 35.6655,49.4787187 35.6655,48.8345 L35.6655,47.66725 L36.831,47.66725 C37.4769687,47.66725 38,47.1443281 38,46.5 C38,45.8556719 37.4769687,45.3345 36.831,45.3345 L35.6655,45.3345 L35.6655,44.16725 C35.6655,43.5229219 35.1425781,43 34.5,43 C33.8540312,43 33.331,43.5229219 33.331,44.16725 L33.331,45.3345 L32.1655,45.3345 C31.5211719,45.3345 31,45.8557812 31,46.5 C31,47.1442187 31.5212813,47.66725 32.1655,47.66725 Z" id="Shape"></path>
                <path d="M43.8345,46 L39.1655,46 C38.5229219,46 38,46.4469242 38,46.9992498 C38,47.5515754 38.5229219,48 39.1655,48 L43.8345,48 C44.4770781,48 45,47.5516692 45,46.9992498 C45,46.4468305 44.4770781,46 43.8345,46 Z" id="Shape"></path>
            </g>
        </g>
    </g>
</svg>