<?xml version="1.0" encoding="UTF-8"?>
<svg width="105px" height="105px" viewBox="0 0 105 105" version="1.1" xmlns="http://www.w3.org/2000/svg" xmlns:xlink="http://www.w3.org/1999/xlink">
    <!-- Generator: Sketch 47 (45396) - http://www.bohemiancoding.com/sketch -->
    <title>location</title>
    <desc>Created with Sketch.</desc>
    <defs></defs>
    <g id="Page-4" stroke="none" stroke-width="1" fill="none" fill-rule="evenodd">
        <g id="location">
            <circle id="Oval-4" fill="#FFFFFF" cx="52.5" cy="52.5" r="52.5"></circle>
            <g id="location-point" transform="translate(35.000000, 32.000000)" fill-rule="nonzero" fill="#FE8065">
                <path d="M15,6 C10.0374767,6 6,10.0373877 6,15 C6,19.9626123 10.0374767,24 15,24 C19.9625233,24 24,19.9626123 24,15 C24,10.0373877 19.9625233,6 15,6 Z M15,21.5790521 C11.3722744,21.5790521 8.42074308,18.6276292 8.42074308,14.9998386 C8.42074308,11.372048 11.3722744,8.42078649 15,8.42078649 C18.6277256,8.42078649 21.5792569,11.3722094 21.5792569,15 C21.5792569,18.6277906 18.627887,21.5790521 15,21.5790521 Z" id="Shape"></path>
                <path d="M15.499918,0 C6.95321282,0 0,6.96380372 0,15.523527 C0,20.4600106 4.13370485,27.8146685 6.59770109,31.7591605 C8.21889358,34.3542944 9.96104857,36.8241778 11.5030746,38.7136073 C13.9782164,41.7462156 14.8641274,42 15.500082,42 C16.1455431,42 16.9819545,41.7460515 19.4493928,38.7118016 C20.9948608,36.8110453 22.7378353,34.3426394 24.3573887,31.7611303 C26.8382673,27.8069532 31,20.4391628 31,15.5233628 C31,6.96380372 24.0467872,0 15.499918,0 Z M22.6529321,29.8439585 C19.4738147,35.0120654 16.5551437,38.5043091 15.4853304,39.3958375 C14.4099443,38.531723 11.5386421,35.1225421 8.3151063,29.8602099 C4.59329678,23.7839948 2.45875125,18.5584335 2.45875125,15.523527 C2.45858734,8.32153368 8.30887788,2.46233218 15.499918,2.46233218 C22.6909582,2.46233218 28.5412488,8.32153368 28.5412488,15.523527 C28.5414127,18.541033 26.3950659,23.7605206 22.6529321,29.8439585 Z" id="Shape"></path>
            </g>
        </g>
    </g>
</svg>