<svg width="217" height="48" viewBox="0 0 217 48" version="1.1" xmlns="http://www.w3.org/2000/svg" xmlns:xlink="http://www.w3.org/1999/xlink">
<title>Group 20</title>
<desc>Created using Figma</desc>
<g id="Canvas" transform="translate(2 -659)">
<g id="Group 20">
<g id="Ellipse 3">
<mask id="mask0_outline_ins">
<use xlink:href="#path0_fill" fill="white" transform="translate(-2 659)"/>
</mask>
<g mask="url(#mask0_outline_ins)">
<use xlink:href="#path1_stroke_2x" transform="translate(-2 659)" fill="#FF5461"/>
</g>
</g>
<g id="STEELSTYLING">
<use xlink:href="#path2_fill" transform="translate(48 669)" fill="#FF5461"/>
</g>
<g id="Ellipse 2">
<use xlink:href="#path3_fill" transform="translate(2 660)" fill="#FF5461"/>
</g>
</g>
</g>
<defs>
<path id="path0_fill" d="M 24 48C 37.2548 48 48 37.2548 48 24C 48 16.6537 44.6993 10.0782 39.5 5.67585C 35.3183 2.1351 29.9085 0 24 0C 10.7452 0 0 10.7452 0 24C 0 37.2548 10.7452 48 24 48Z"/>
<path id="path1_stroke_2x" d="M 39.5 5.67585L 37.5614 7.96536L 37.5614 7.96536L 39.5 5.67585ZM 45 24C 45 35.598 35.598 45 24 45L 24 51C 38.9117 51 51 38.9117 51 24L 45 24ZM 24 45C 12.402 45 3 35.598 3 24L -3 24C -3 38.9117 9.08831 51 24 51L 24 45ZM 3 24C 3 12.402 12.402 3 24 3L 24 -3C 9.08831 -3 -3 9.08831 -3 24L 3 24ZM 24 3C 29.348 2.94717 33.7778 4.70939 37.5614 7.96536L 41.4386 3.38634C 36.8588 -0.439182 30.469 -2.94717 24 -3L 24 3ZM 37.5614 7.96536C 42.1163 11.8221 45 17.5728 45 24L 51 24C 51 15.7345 47.2823 8.33439 41.4386 3.38634L 37.5614 7.96536Z"/>
<path id="path2_fill" d="M 10.3711 17.5234C 10.3711 16.8594 10.1367 16.3516 9.66797 16C 9.19922 15.6406 8.35547 15.2656 7.13672 14.875C 5.91797 14.4766 4.95312 14.0859 4.24219 13.7031C 2.30469 12.6562 1.33594 11.2461 1.33594 9.47266C 1.33594 8.55078 1.59375 7.73047 2.10938 7.01172C 2.63281 6.28516 3.37891 5.71875 4.34766 5.3125C 5.32422 4.90625 6.41797 4.70312 7.62891 4.70312C 8.84766 4.70312 9.93359 4.92578 10.8867 5.37109C 11.8398 5.80859 12.5781 6.42969 13.1016 7.23438C 13.6328 8.03906 13.8984 8.95312 13.8984 9.97656L 10.3828 9.97656C 10.3828 9.19531 10.1367 8.58984 9.64453 8.16016C 9.15234 7.72266 8.46094 7.50391 7.57031 7.50391C 6.71094 7.50391 6.04297 7.6875 5.56641 8.05469C 5.08984 8.41406 4.85156 8.89062 4.85156 9.48438C 4.85156 10.0391 5.12891 10.5039 5.68359 10.8789C 6.24609 11.2539 7.07031 11.6055 8.15625 11.9336C 10.1562 12.5352 11.6133 13.2812 12.5273 14.1719C 13.4414 15.0625 13.8984 16.1719 13.8984 17.5C 13.8984 18.9766 13.3398 20.1367 12.2227 20.9805C 11.1055 21.8164 9.60156 22.2344 7.71094 22.2344C 6.39844 22.2344 5.20312 21.9961 4.125 21.5195C 3.04688 21.0352 2.22266 20.375 1.65234 19.5391C 1.08984 18.7031 0.808594 17.7344 0.808594 16.6328L 4.33594 16.6328C 4.33594 18.5156 5.46094 19.457 7.71094 19.457C 8.54688 19.457 9.19922 19.2891 9.66797 18.9531C 10.1367 18.6094 10.3711 18.1328 10.3711 17.5234ZM 29.1328 7.78516L 23.9062 7.78516L 23.9062 22L 20.3906 22L 20.3906 7.78516L 15.2344 7.78516L 15.2344 4.9375L 29.1328 4.9375L 29.1328 7.78516ZM 41.4141 14.6055L 34.6641 14.6055L 34.6641 19.1758L 42.5859 19.1758L 42.5859 22L 31.1484 22L 31.1484 4.9375L 42.5625 4.9375L 42.5625 7.78516L 34.6641 7.78516L 34.6641 11.8516L 41.4141 11.8516L 41.4141 14.6055ZM 54.9141 14.6055L 48.1641 14.6055L 48.1641 19.1758L 56.0859 19.1758L 56.0859 22L 44.6484 22L 44.6484 4.9375L 56.0625 4.9375L 56.0625 7.78516L 48.1641 7.78516L 48.1641 11.8516L 54.9141 11.8516L 54.9141 14.6055ZM 61.6641 19.1758L 69.1289 19.1758L 69.1289 22L 58.1484 22L 58.1484 4.9375L 61.6641 4.9375L 61.6641 19.1758ZM 80.0039 17.5234C 80.0039 16.8594 79.7695 16.3516 79.3008 16C 78.832 15.6406 77.9883 15.2656 76.7695 14.875C 75.5508 14.4766 74.5859 14.0859 73.875 13.7031C 71.9375 12.6562 70.9688 11.2461 70.9688 9.47266C 70.9688 8.55078 71.2266 7.73047 71.7422 7.01172C 72.2656 6.28516 73.0117 5.71875 73.9805 5.3125C 74.957 4.90625 76.0508 4.70312 77.2617 4.70312C 78.4805 4.70312 79.5664 4.92578 80.5195 5.37109C 81.4727 5.80859 82.2109 6.42969 82.7344 7.23438C 83.2656 8.03906 83.5312 8.95312 83.5312 9.97656L 80.0156 9.97656C 80.0156 9.19531 79.7695 8.58984 79.2773 8.16016C 78.7852 7.72266 78.0938 7.50391 77.2031 7.50391C 76.3438 7.50391 75.6758 7.6875 75.1992 8.05469C 74.7227 8.41406 74.4844 8.89062 74.4844 9.48438C 74.4844 10.0391 74.7617 10.5039 75.3164 10.8789C 75.8789 11.2539 76.7031 11.6055 77.7891 11.9336C 79.7891 12.5352 81.2461 13.2812 82.1602 14.1719C 83.0742 15.0625 83.5312 16.1719 83.5312 17.5C 83.5312 18.9766 82.9727 20.1367 81.8555 20.9805C 80.7383 21.8164 79.2344 22.2344 77.3438 22.2344C 76.0312 22.2344 74.8359 21.9961 73.7578 21.5195C 72.6797 21.0352 71.8555 20.375 71.2852 19.5391C 70.7227 18.7031 70.4414 17.7344 70.4414 16.6328L 73.9688 16.6328C 73.9688 18.5156 75.0938 19.457 77.3438 19.457C 78.1797 19.457 78.832 19.2891 79.3008 18.9531C 79.7695 18.6094 80.0039 18.1328 80.0039 17.5234ZM 98.7656 7.78516L 93.5391 7.78516L 93.5391 22L 90.0234 22L 90.0234 7.78516L 84.8672 7.78516L 84.8672 4.9375L 98.7656 4.9375L 98.7656 7.78516ZM 106.852 12.625L 110.402 4.9375L 114.246 4.9375L 108.645 15.8125L 108.645 22L 105.07 22L 105.07 15.8125L 99.4688 4.9375L 103.324 4.9375L 106.852 12.625ZM 119.32 19.1758L 126.785 19.1758L 126.785 22L 115.805 22L 115.805 4.9375L 119.32 4.9375L 119.32 19.1758ZM 132.551 22L 129.035 22L 129.035 4.9375L 132.551 4.9375L 132.551 22ZM 149.695 22L 146.18 22L 139.336 10.7734L 139.336 22L 135.82 22L 135.82 4.9375L 139.336 4.9375L 146.191 16.1875L 146.191 4.9375L 149.695 4.9375L 149.695 22ZM 166.266 19.8438C 165.633 20.6016 164.738 21.1914 163.582 21.6133C 162.426 22.0273 161.145 22.2344 159.738 22.2344C 158.262 22.2344 156.965 21.9141 155.848 21.2734C 154.738 20.625 153.879 19.6875 153.27 18.4609C 152.668 17.2344 152.359 15.793 152.344 14.1367L 152.344 12.9766C 152.344 11.2734 152.629 9.80078 153.199 8.55859C 153.777 7.30859 154.605 6.35547 155.684 5.69922C 156.77 5.03516 158.039 4.70312 159.492 4.70312C 161.516 4.70312 163.098 5.1875 164.238 6.15625C 165.379 7.11719 166.055 8.51953 166.266 10.3633L 162.844 10.3633C 162.688 9.38672 162.34 8.67188 161.801 8.21875C 161.27 7.76562 160.535 7.53906 159.598 7.53906C 158.402 7.53906 157.492 7.98828 156.867 8.88672C 156.242 9.78516 155.926 11.1211 155.918 12.8945L 155.918 13.9844C 155.918 15.7734 156.258 17.125 156.938 18.0391C 157.617 18.9531 158.613 19.4102 159.926 19.4102C 161.246 19.4102 162.188 19.1289 162.75 18.5664L 162.75 15.625L 159.551 15.625L 159.551 13.0352L 166.266 13.0352L 166.266 19.8438Z"/>
<path id="path3_fill" fill-rule="evenodd" d="M 40 23C 40 34.0457 31.0457 43 20 43C 18.2735 43 16.5981 42.7812 15 42.3699L 31.5 23.5L 25 23.5L 10 40.3244L 5 47L 6 37.2829C 2.29728 33.653 0 28.5948 0 23C 0 11.9543 8.9543 3 20 3C 22.0904 3 24.1059 3.32071 26 3.9156L 8.5 23.5L 14.5 23.5L 30.5 5.97469L 35.5 0L 33.775 8.5C 37.6094 12.1439 40 17.2928 40 23ZM 25.5 13.5L 7.5 33.5L 13.5 33.5L 31.5 13.5L 25.5 13.5Z"/>
</defs>
</svg>
