<?xml version="1.0" encoding="UTF-8"?>
<svg width="166px" height="132px" viewBox="0 0 166 132" version="1.1" xmlns="http://www.w3.org/2000/svg" xmlns:xlink="http://www.w3.org/1999/xlink">
    <!-- Generator: Sketch 47 (45396) - http://www.bohemiancoding.com/sketch -->
    <title>n-3</title>
    <desc>Created with Sketch.</desc>
    <defs></defs>
    <g id="pages" stroke="none" stroke-width="1" fill="none" fill-rule="evenodd">
        <g id="ограждения" transform="translate(-795.000000, -3852.000000)">
            <g id="n-3" transform="translate(795.000000, 3852.000000)">
                <path d="M57.4648438,53.6230469 L70.3847656,53.7109375 C75.6582295,53.5937494 79.9941236,52.0556789 83.3925781,49.0966797 C86.7910326,46.1376805 88.8124968,41.9922142 89.4570313,36.6601562 C89.9257836,32.6757613 89.1347759,29.3945441 87.0839844,26.8164062 C85.0331929,24.2382684 81.9570518,22.9199222 77.8554688,22.8613281 C74.046856,22.74414 70.677749,23.798817 67.7480469,26.0253906 C64.8183447,28.2519643 62.9433635,31.210919 62.1230469,34.9023437 L33.1191406,35.078125 C33.4707049,28.1640279 35.6972451,22.0410423 39.7988281,16.7089844 C43.9004111,11.3769265 49.3642237,7.26075669 56.1904297,4.36035156 C63.0166357,1.45994644 70.3554295,0.039062207 78.2070313,0.09765625 C91.0977207,0.390626465 101.234338,3.77438169 108.617188,10.2490234 C116.000037,16.7236652 119.369144,25.3515086 118.724609,36.1328125 C117.962887,48.2031854 110.082106,57.7538711 95.0820313,64.7851562 C100.765653,67.5976703 105.013658,71.4941157 107.826172,76.4746094 C110.638686,81.455103 111.898439,87.0800468 111.605469,93.3496094 C111.19531,101.201211 108.705101,108.041963 104.134766,113.87207 C99.5644303,119.702178 93.4414446,124.184555 85.765625,127.319336 C78.0898054,130.454117 69.8574658,131.933595 61.0683594,131.757812 C53.3925397,131.699218 46.4346015,130.073258 40.1943359,126.879883 C33.9540704,123.686507 29.1640792,119.277372 25.8242188,113.652344 C22.4843583,108.027316 20.8437497,101.582068 20.9023438,94.3164062 L49.7304688,94.3164062 C49.7890628,98.4765833 51.0195192,101.904283 53.421875,104.599609 C55.8242308,107.294935 59.1933377,108.701171 63.5292969,108.818359 C68.3926024,108.935547 72.6992,107.500015 76.4492188,104.511719 C80.1992375,101.523423 82.4257777,97.5976806 83.1289063,92.734375 C83.8320348,87.5195052 83.0556753,83.432632 80.7998047,80.4736328 C78.543934,77.5146336 74.7793232,75.9472665 69.5058594,75.7714844 L54.0371094,75.6835938 L57.4648438,53.6230469 Z" id="3" fill="#F3F3CE" opacity="0.439311594"></path>
                <g id="Group-7-Copy-2" transform="translate(0.000000, 33.000000)">
                    <path d="M30.5,20.3368421 L30.5,83.6667412" id="Line-9" stroke="#FF8267" stroke-width="10" stroke-linecap="square"></path>
                    <path d="M138.5,20.3368421 L138.5,83.6667412" id="Line-9-Copy-2" stroke="#FF8267" stroke-width="10" stroke-linecap="square"></path>
                    <path d="M30.5,9.33870968 L30.5,29.6725775" id="Line-9-Copy" stroke="#FF8267" stroke-width="7" stroke-linecap="square"></path>
                    <path d="M138.5,9.33870968 L138.5,29.6725775" id="Line-9-Copy-3" stroke="#FF8267" stroke-width="7" stroke-linecap="square"></path>
                    <path d="M19.3428571,89.5 L42.8179329,89.5" id="Line-10" stroke="#FF8267" stroke-width="6" stroke-linecap="square"></path>
                    <path d="M0.5,92.5 L164.847193,92.5" id="Line-12" stroke="#979797" stroke-linecap="square"></path>
                    <path d="M125.342857,89.5 L148.817933,89.5" id="Line-10-Copy" stroke="#FF8267" stroke-width="6" stroke-linecap="square"></path>
                    <path d="M18.6717949,1.5 L149,1.5" id="Line-11" stroke="#FF8267" stroke-width="12"></path>
                    <path d="M18.6717949,46.5 L149,46.5" id="Line-11-Copy" stroke="#FF8267" stroke-width="5"></path>
                    <path d="M18.6717949,31.5 L149,31.5" id="Line-11-Copy-3" stroke="#FF8267" stroke-width="5"></path>
                    <path d="M18.6717949,61.5 L149,61.5" id="Line-11-Copy-2" stroke="#FF8267" stroke-width="5"></path>
                </g>
            </g>
        </g>
    </g>
</svg>