<?xml version="1.0" encoding="UTF-8"?>
<svg width="20px" height="19px" viewBox="0 0 20 19" version="1.1" xmlns="http://www.w3.org/2000/svg" xmlns:xlink="http://www.w3.org/1999/xlink">
    <!-- Generator: Sketch 47 (45396) - http://www.bohemiancoding.com/sketch -->
    <title>directions</title>
    <desc>Created with Sketch.</desc>
    <defs></defs>
    <g id="pages" stroke="none" stroke-width="1" fill="none" fill-rule="evenodd">
        <g id="perila" transform="translate(-125.000000, -7645.000000)" fill-rule="nonzero" fill="#FD9B66">
            <g id="Group-22" transform="translate(123.000000, 7444.000000)">
                <g id="directions" transform="translate(2.000000, 201.000000)">
                    <path d="M19.7582583,1.4846688 L17.7590474,0.0989993487 C17.666033,0.0345533441 17.5558026,0 17.442942,0 L10.1336235,0 C9.82548848,0 9.57569671,0.251837629 9.57569671,0.562496299 L9.57569671,4.37638192 L2.55697827,4.37638192 C2.44411766,4.37638192 2.33388727,4.41093527 2.24087292,4.47530091 L0.241821392,5.86097037 C0.0904638364,5.96591611 0,6.13932568 0,6.32454768 C0,6.50976967 0.0904638364,6.68309889 0.241821392,6.78804463 L2.24095262,8.17371408 C2.33396698,8.23816009 2.44419736,8.27271343 2.55705797,8.27271343 L9.57577641,8.27271343 L9.57577641,17.8750074 L7.24651196,17.8750074 C6.93837699,17.8750074 6.68858522,18.126845 6.68858522,18.4375037 C6.68858522,18.7481624 6.93837699,19 7.24651196,19 L12.8050564,19 C13.1131914,19 13.3629832,18.7481624 13.3629832,18.4375037 C13.3629832,18.126845 13.1131914,17.8750074 12.8050564,17.8750074 L10.6915502,17.8750074 L10.6915502,3.89625115 L17.442942,3.89625115 C17.5558026,3.89625115 17.666033,3.86169781 17.7590474,3.7972518 L19.7581786,2.41166271 C19.9095362,2.30671697 20,2.13338775 20,1.9480854 C20,1.76278305 19.9096159,1.58953419 19.7582583,1.4846688 Z M2.73033408,7.14772083 L1.54274715,6.32454768 L2.73033408,5.50137452 L9.57569671,5.50137452 L9.57569671,7.14772083 L2.73033408,7.14772083 Z M17.2696659,2.77125855 L10.6915502,2.77125855 L10.6915502,1.1249926 L17.2696659,1.1249926 L18.4572528,1.94816575 L17.2696659,2.77125855 Z" id="Shape"></path>
                </g>
            </g>
        </g>
    </g>
</svg>