<?xml version="1.0" encoding="UTF-8"?>
<svg width="25px" height="16px" viewBox="0 0 25 16" version="1.1" xmlns="http://www.w3.org/2000/svg" xmlns:xlink="http://www.w3.org/1999/xlink">
    <!-- Generator: Sketch 47 (45396) - http://www.bohemiancoding.com/sketch -->
    <title>new-email-outline</title>
    <desc>Created with Sketch.</desc>
    <defs></defs>
    <g id="pages" stroke="none" stroke-width="1" fill="none" fill-rule="evenodd">
        <g id="perila" transform="translate(-124.000000, -7568.000000)" fill-rule="nonzero" fill="#FD9B66">
            <g id="Group-22" transform="translate(123.000000, 7444.000000)">
                <g id="new-email-outline" transform="translate(1.000000, 124.000000)">
                    <path d="M24.9995507,2.02689957 C24.9995507,1.50585749 24.7887701,1.03446694 24.4524608,0.675061566 C24.4468645,0.66792291 24.4455982,0.659508071 24.4395526,0.652329535 C24.4339563,0.646028375 24.426195,0.643476007 24.4201493,0.637613536 C24.0377624,0.247021406 23.4988832,0 22.8988123,0 L2.10114687,0 C1.50107596,0 0.962196758,0.247021406 0.578952012,0.637613536 C0.573355708,0.643476007 0.565145071,0.646028375 0.559548766,0.652768223 C0.553503123,0.659508071 0.552236806,0.668321718 0.546640502,0.675500254 C0.210821374,1.03490563 0,1.50585749 0,2.02689957 L0,13.9730207 C0,14.506705 0.2194405,14.9894216 0.570332886,15.3518181 C0.577236357,15.3593555 0.579401351,15.3686477 0.587162649,15.3758263 C0.589736132,15.3783388 0.592758954,15.3787376 0.595373286,15.3812899 C0.977760204,15.7617922 1.51014443,16 2.10118772,16 L22.8988531,16 C23.4898964,16 24.02273,15.7613934 24.4046676,15.380931 C24.407241,15.3787775 24.4102639,15.3779798 24.4128374,15.3758662 C24.4201902,15.3691263 24.4223143,15.359874 24.4292178,15.3526954 C24.7805595,14.9903389 25,14.5071835 25,13.9730605 L25,2.02689957 L24.9995507,2.02689957 Z M16.8169771,7.36864774 L24.0214228,1.53656567 C24.0920915,1.68639767 24.1339208,1.85178317 24.1339208,2.02685969 L24.1339208,13.9729808 C24.1339208,14.1312675 24.1003021,14.2814983 24.0420924,14.4199643 L16.8169771,7.36864774 Z M22.8988123,0.835382207 C23.0803041,0.835382207 23.2514612,0.875781414 23.4070548,0.943977507 L12.4999796,9.77269963 L1.59290438,0.943977507 C1.74853883,0.875821294 1.91969589,0.835382207 2.10114687,0.835382207 L22.8988123,0.835382207 Z M0.957907619,14.4196054 C0.899697881,14.2815781 0.866079204,14.1309086 0.866079204,13.9726219 L0.866079204,2.02689957 C0.866079204,1.85182305 0.907908518,1.68639767 0.978577182,1.53660555 L8.18302285,7.36868762 L0.957907619,14.4196054 Z M2.10114687,15.1641392 C1.90115047,15.1641392 1.71487931,15.1136103 1.54764375,15.0320143 L8.84861547,7.90699808 L12.2219208,10.6376734 C12.3021073,10.7029183 12.4012477,10.7357401 12.4999796,10.7357401 C12.5987115,10.7357401 12.6978518,10.7029183 12.7780383,10.6376734 L16.1513437,7.90699808 L23.4523154,15.0320143 C23.285039,15.1136502 23.0988495,15.1641392 22.8987714,15.1641392 L2.10114687,15.1641392 Z" id="Shape"></path>
                </g>
            </g>
        </g>
    </g>
</svg>