<?xml version="1.0" encoding="UTF-8"?>
<svg width="15px" height="26px" viewBox="0 0 15 26" version="1.1" xmlns="http://www.w3.org/2000/svg" xmlns:xlink="http://www.w3.org/1999/xlink">
    <!-- Generator: Sketch 47 (45396) - http://www.bohemiancoding.com/sketch -->
    <title>iphone</title>
    <desc>Created with Sketch.</desc>
    <defs></defs>
    <g id="pages" stroke="none" stroke-width="1" fill="none" fill-rule="evenodd">
        <g id="perila" transform="translate(-129.000000, -7498.000000)" fill-rule="nonzero" fill="#FD9B66">
            <g id="Group-22" transform="translate(123.000000, 7444.000000)">
                <g id="iphone" transform="translate(6.000000, 54.000000)">
                    <path d="M2.50008333,7 C2.62807266,7 2.75606199,6.95100204 2.85355387,6.8535061 L4.85338722,4.85358943 C5.04887093,4.65809758 5.04887093,4.34211075 4.85338722,4.14661889 C4.65790351,3.95112704 4.34192984,3.95112704 4.14644613,4.14661889 L2.14661278,6.14653556 C1.95112907,6.34202742 1.95112907,6.65801425 2.14661278,6.8535061 C2.24460462,6.95100204 2.37209399,7 2.50008333,7 Z" id="Shape"></path>
                    <path d="M2.50006249,8 C2.62804649,8 2.7560305,7.97550153 2.85351831,7.92675458 L3.85339333,7.42678583 C4.04886889,7.32904193 4.04886889,7.17105181 3.85339333,7.07330792 C3.65791776,6.97556403 3.34195726,6.97556403 3.14648169,7.07330792 L2.14660667,7.57327667 C1.95113111,7.67102056 1.95113111,7.82901069 2.14660667,7.92675458 C2.24459443,7.97550153 2.37207849,8 2.50006249,8 Z" id="Shape"></path>
                    <path d="M4.14507254,6.13962264 C4.05502751,6.23471698 4,6.36603774 4,6.49685535 C4,6.62767296 4.05502751,6.75849057 4.14507254,6.85408805 C4.23961981,6.94465409 4.36968484,7 4.49974987,7 C4.62981491,7 4.75987994,6.94465409 4.85492746,6.85408805 C4.94497249,6.75849057 5,6.62767296 5,6.49685535 C5,6.36050314 4.94497249,6.23471698 4.85492746,6.13962264 C4.66983492,5.95345912 4.33466733,5.95345912 4.14507254,6.13962264 Z" id="Shape"></path>
                    <path d="M4.11700585,5.88280586 C4.19540977,5.96080196 4.29741487,6 4.39981999,6 C4.50222511,6 4.60463023,5.96080196 4.68263413,5.88280586 L5.88269413,4.68286586 C6.03910196,4.52647368 6.03910196,4.27368632 5.88269413,4.11729414 C5.72628631,3.96090195 5.47347367,3.96090195 5.31706585,4.11729414 L4.11700585,5.31723414 C3.96099805,5.47362632 3.96099805,5.72641368 4.11700585,5.88280586 Z" id="Shape"></path>
                    <path d="M5.37921004,6.10663394 L2.10663152,9.37928683 C1.96445616,9.52146542 1.96445616,9.75127838 2.10663152,9.89345697 C2.177901,9.96436445 2.27062406,10 2.36371074,10 C2.45679742,10 2.5498841,9.96436445 2.62078996,9.89345697 L5.89336848,6.62080407 C6.03554384,6.47862549 6.03554384,6.24881253 5.89336848,6.10663394 C5.75119313,5.96445535 5.52138539,5.96445535 5.37921004,6.10663394 Z" id="Shape"></path>
                    <path d="M7.14507254,5.1390866 C7.05502751,5.23424019 7,5.36010472 7,5.49654187 C7,5.62744099 7.05502751,5.7583401 7.14507254,5.85399714 C7.23961981,5.94461961 7.36968484,6 7.49974987,6 C7.62981491,6 7.75987994,5.94461961 7.85492746,5.85399714 C7.94497249,5.7583401 8,5.62744099 8,5.49654187 C8,5.36010472 7.94497249,5.23424019 7.85492746,5.14412118 C7.66983492,4.95280709 7.32966483,4.95280709 7.14507254,5.1390866 Z" id="Shape"></path>
                    <path d="M8.4310115,4.09774185 L8.09773371,4.43104741 C7.9674221,4.56136989 7.9674221,4.772019 8.09773371,4.90234147 C8.16305616,4.96733606 8.24804199,5 8.33336111,5 C8.41868022,5 8.50399933,4.96733606 8.5689885,4.90234147 L8.90226629,4.56903591 C9.0325779,4.43871344 9.0325779,4.22806433 8.90226629,4.09774185 C8.77195467,3.96741938 8.56132311,3.96741938 8.4310115,4.09774185 Z" id="Shape"></path>
                    <path d="M13.3032371,0 L2.12663216,0 C1.19060543,0 0.428583669,0.770033333 0.428583669,1.71686667 L0.428583669,2.6 L0.428583669,3.9 C0.192005484,3.9 0,4.0937 0,4.33333333 L0,4.76666667 C0,5.0063 0.192005484,5.2 0.428583669,5.2 L0.428583669,5.63333333 C0.192005484,5.63333333 0,5.82703333 0,6.06666667 L0,6.5 C0,6.73963333 0.192005484,6.93333333 0.428583669,6.93333333 L0.428583669,7.36666667 C0.192005484,7.36666667 0,7.56036667 0,7.8 L0,8.23333333 C0,8.47296667 0.192005484,8.66666667 0.428583669,8.66666667 L0.428583669,22.5333333 L0.428583669,24.2831333 C0.428583669,25.2299667 1.19017685,26 2.12620358,26 L13.3023799,26 C14.2388352,26 14.9999998,25.2299667 14.9999998,24.2831333 L14.9999998,22.5333333 L14.9999998,2.6 L14.9999998,1.71686667 C15.0004284,0.770033333 14.2388352,0 13.3032371,0 Z M7.71450604,24.7 C7.24177825,24.7 6.8573387,24.3113 6.8573387,23.8333333 C6.8573387,23.3553667 7.24177825,22.9666667 7.71450604,22.9666667 C8.18723382,22.9666667 8.57167337,23.3553667 8.57167337,23.8333333 C8.57167337,24.3113 8.18766241,24.7 7.71450604,24.7 Z M1.28575101,3.46666667 L14.1432611,3.46666667 L14.1432611,21.6666667 L1.28575101,21.6666667 L1.28575101,3.46666667 Z M1.28575101,24.2831333 L1.28575101,22.5333333 L6.59247399,22.5333333 C6.23246371,22.8514 6.00017136,23.3129 6.00017136,23.8333333 C6.00017136,24.3537667 6.23246371,24.8152667 6.59247399,25.1333333 L2.12663216,25.1333333 C1.66290463,25.1333333 1.28575101,24.752 1.28575101,24.2831333 Z M14.1432611,24.2831333 C14.1432611,24.752 13.7661074,25.1333333 13.3032371,25.1333333 L8.83653808,25.1333333 C9.19654836,24.8152667 9.42884071,24.3537667 9.42884071,23.8333333 C9.42884071,23.3129 9.19654836,22.8514 8.83653808,22.5333333 L14.1432611,22.5333333 L14.1432611,24.2831333 Z M1.28575101,2.6 L1.28575101,1.71686667 C1.28575101,1.248 1.66290463,0.866666667 2.12663216,0.866666667 L13.3028085,0.866666667 C13.7661074,0.866666667 14.1432611,1.248 14.1432611,1.71686667 L14.1432611,2.6 L1.28575101,2.6 Z" id="Shape"></path>
                    <path d="M10.5714286,1 L8.42857143,1 C8.192,1 8,1.2235 8,1.5 C8,1.7765 8.192,2 8.42857143,2 L10.5714286,2 C10.808,2 11,1.7765 11,1.5 C11,1.2235 10.808,1 10.5714286,1 Z" id="Shape"></path>
                    <path d="M6.33333333,1 L5.66666667,1 C5.29866667,1 5,1.2235 5,1.5 C5,1.7765 5.29866667,2 5.66666667,2 L6.33333333,2 C6.70133333,2 7,1.7765 7,1.5 C7,1.2235 6.70133333,1 6.33333333,1 Z" id="Shape"></path>
                </g>
            </g>
        </g>
    </g>
</svg>