<?xml version="1.0" encoding="UTF-8"?>
<svg width="107px" height="107px" viewBox="0 0 107 107" version="1.1" xmlns="http://www.w3.org/2000/svg" xmlns:xlink="http://www.w3.org/1999/xlink">
    <!-- Generator: Sketch 47 (45396) - http://www.bohemiancoding.com/sketch -->
    <title>calendar-i</title>
    <desc>Created with Sketch.</desc>
    <defs></defs>
    <g id="pages" stroke="none" stroke-width="1" fill="none" fill-rule="evenodd">
        <g id="перила" transform="translate(-749.000000, -3014.000000)">
            <g id="Group-6-Copy" transform="translate(750.000000, 3015.000000)">
                <g id="calendar-i">
                    <circle id="Oval-4" stroke="#979797" fill="#FFFFFF" cx="52.5" cy="52.5" r="52.5"></circle>
                    <g id="calendar" transform="translate(30.000000, 26.000000)" fill="#FD9B66">
                        <path d="M46.185908,0 L33.5589177,0 C33.1093685,0 32.7448258,0.365771484 32.7448258,0.816835937 L32.7448258,5.88005859 C32.7448258,6.17160156 32.899636,6.4409082 33.1511223,6.58700195 C33.7039854,6.90808594 34.0473301,7.50438477 34.0473301,8.14322266 C34.0473301,9.13408203 33.2438372,9.9402832 32.2563063,9.9402832 C31.2687755,9.9402832 30.4652826,9.13408203 30.4652826,8.14322266 C30.4652826,7.50438477 30.8087344,6.90808594 31.3614904,6.58700195 C31.6129767,6.4409082 31.7677869,6.17160156 31.7677869,5.88005859 L31.7677869,0.816835937 C31.7677869,0.365771484 31.4032442,0 30.953695,0 L16.046198,0 C15.5966488,0 15.232106,0.365771484 15.232106,0.816835937 L15.232106,5.88005859 C15.232106,6.17160156 15.3869162,6.4409082 15.6384026,6.58700195 C16.1912656,6.90808594 16.5346103,7.50438477 16.5346103,8.14322266 C16.5346103,9.13408203 15.7311174,9.9402832 14.7435866,9.9402832 C13.7560558,9.9402832 12.9525629,9.13408203 12.9525629,8.14322266 C12.9525629,7.50438477 13.2960146,6.90808594 13.8487706,6.58700195 C14.1002569,6.4409082 14.2550672,6.17160156 14.2550672,5.88005859 L14.2550672,0.816835937 C14.2550672,0.365771484 13.8905244,0 13.4409752,0 L0.814091963,0 C0.364542758,0 0,0.365771484 0,0.816835937 L0,54.1831641 C0,54.6342285 0.364542758,55 0.814091963,55 L46.185908,55 C46.6354572,55 47,54.6342285 47,54.1831641 L47,0.816835937 C47,0.365771484 46.6354572,0 46.185908,0 Z M45.3718161,14.5145215 L37.1889285,14.5145215 C36.7393793,14.5145215 36.3748366,14.880293 36.3748366,15.3313574 C36.3748366,15.7824219 36.7393793,16.1481934 37.1889285,16.1481934 L45.3718161,16.1481934 L45.3718161,53.3663281 L1.62818393,53.3663281 L1.62818393,16.1481934 L33.3897613,16.1481934 C33.8393105,16.1481934 34.2038533,15.7824219 34.2038533,15.3313574 C34.2038533,14.880293 33.8393105,14.5145215 33.3897613,14.5145215 L1.62818393,14.5145215 L1.62818393,1.63367188 L12.6270974,1.63367188 L12.6270974,5.45026367 C11.8137548,6.0956543 11.3245931,7.08898438 11.3245931,8.14333008 C11.3245931,10.0350293 12.8584562,11.5740625 14.7438007,11.5740625 C16.6291452,11.5740625 18.1630084,10.0350293 18.1630084,8.14333008 C18.1630084,7.08898438 17.6738466,6.0956543 16.8605041,5.45026367 L16.8605041,1.63367188 L30.1399242,1.63367188 L30.1399242,5.45026367 C29.3265817,6.09554688 28.8374199,7.08887695 28.8374199,8.14333008 C28.8374199,10.0350293 30.371283,11.5740625 32.2566275,11.5740625 C34.141972,11.5740625 35.6758352,10.0350293 35.6758352,8.14333008 C35.6758352,7.08898438 35.1865663,6.0956543 34.3733309,5.45026367 L34.3733309,1.63367188 L45.3722443,1.63367188 L45.3722443,14.5145215 L45.3718161,14.5145215 Z" id="Shape" fill-rule="nonzero"></path>
                        <path d="M10.6506685,33.6591353 L11.6189928,23.9758924 L21.5477264,23.9758924 L21.5477264,25.4897515 L13.023745,25.4897515 L12.3281881,32.1998297 C13.3919863,31.4724463 14.6376116,31.1087601 16.0651015,31.1087601 C17.8562831,31.1087601 19.2837516,31.6906581 20.3475498,32.8544715 C21.411348,34.0182849 21.9432392,35.5684975 21.9432392,37.5051558 C21.9432392,39.596383 21.4249863,41.2193329 20.3884649,42.374054 C19.3519436,43.5287751 17.8926526,44.106127 16.0105481,44.106127 C14.2830125,44.106127 12.8828205,43.6242428 11.80993,42.6604598 C10.7370395,41.6966768 10.123319,40.3464916 9.96875,38.6098638 L11.5371626,38.6098638 C11.6917316,39.9646153 12.1508854,40.9897559 12.914638,41.6853163 C13.6783905,42.3808766 14.7103503,42.7286516 16.0105481,42.7286516 C17.4289457,42.7286516 18.499547,42.2785899 19.2223843,41.378453 C19.9452215,40.478316 20.3066347,39.196322 20.3066347,37.5324325 C20.3066347,36.0776657 19.9020338,34.8911394 19.0928198,33.9728179 C18.2836057,33.0544963 17.1789088,32.5953425 15.7786958,32.5953425 C15.0058509,32.5953425 14.3330314,32.6930831 13.760217,32.8885674 C13.1874025,33.0840517 12.5827742,33.4636492 11.9463137,34.0273713 L10.6506685,33.6591353 Z M37,35.5548688 C37,38.3552949 36.4862932,40.4805863 35.4588642,41.930807 C34.4314351,43.3810276 32.9175911,44.106127 30.9172868,44.106127 C28.9533517,44.106127 27.4485999,43.3946658 26.4029863,41.9717221 C25.3573726,40.5487783 24.8209354,38.4780398 24.7936586,35.7594444 L24.7936586,32.1998297 C24.7936586,29.408496 25.3119114,27.2945697 26.3484328,25.8579875 C27.3849541,24.4214053 28.8987981,23.703125 30.8900101,23.703125 C32.8539452,23.703125 34.354151,24.3964019 35.3906723,25.7829765 C36.4271936,27.1695511 36.9636308,29.2130131 37,31.9134239 L37,35.5548688 Z M35.3633956,31.9952542 C35.3633956,29.7221811 34.9928902,28.0037636 34.2518684,26.8399502 C33.5108466,25.6761368 32.3902383,25.0942388 30.8900101,25.0942388 C29.4170587,25.0942388 28.3078157,25.6624985 27.5622477,26.7990351 C26.8166798,27.9355716 26.4348092,29.6130744 26.4166246,31.8315937 L26.4166246,35.7321676 C26.4166246,37.9961484 26.8007682,39.7282041 27.5690669,40.9283867 C28.3373656,42.1285693 29.4534278,42.7286516 30.9172868,42.7286516 C32.3720536,42.7286516 33.4744775,42.1422076 34.2245916,40.9693018 C34.9747058,39.7963961 35.3543033,38.0779787 35.3633956,35.8139979 L35.3633956,31.9952542 Z" id="50"></path>
                    </g>
                </g>
            </g>
        </g>
    </g>
</svg>