<?xml version="1.0" encoding="UTF-8"?>
<svg width="107px" height="107px" viewBox="0 0 107 107" version="1.1" xmlns="http://www.w3.org/2000/svg" xmlns:xlink="http://www.w3.org/1999/xlink">
    <!-- Generator: Sketch 47 (45396) - http://www.bohemiancoding.com/sketch -->
    <title>brush</title>
    <desc>Created with Sketch.</desc>
    <defs></defs>
    <g id="pages" stroke="none" stroke-width="1" fill="none" fill-rule="evenodd">
        <g id="перила" transform="translate(-104.000000, -3182.000000)">
            <g id="Group-6-Copy-3" transform="translate(105.000000, 3183.000000)">
                <g id="brush">
                    <circle id="Oval-4" stroke="#979797" fill="#FFFFFF" cx="52.5" cy="52.5" r="52.5"></circle>
                    <g id="Group-18" transform="translate(29.000000, 32.000000)">
                        <g id="paint-brush" transform="translate(27.500000, 26.500000) rotate(-270.000000) translate(-27.500000, -26.500000) translate(2.000000, 1.000000)" fill-rule="nonzero" fill="#FD9B66">
                            <path d="M49.8555836,19.3125887 L31.3552839,0.81246745 C30.7991221,0.256208991 30.0436523,-0.0322616388 29.2291028,0.00286943279 C28.3338999,0.0403755627 27.4771928,0.467985028 26.8784776,1.17634618 L13.4811118,17.0269909 C12.6371707,16.2859726 11.3483992,16.3157598 10.543152,17.1210036 L8.28060229,19.3835436 C7.44190621,20.222236 7.44190621,21.586905 8.28060229,22.4255975 L15.596902,29.7418658 L7.52107516,36.6239932 C7.21785807,36.8822808 7.18153932,37.3374014 7.43992698,37.6405182 C7.69811673,37.943635 8.1533382,37.9799536 8.45645633,37.721666 L16.6199628,30.7649222 L19.9030003,34.0479455 L8.0648669,47.939266 C8.0485383,47.9543081 8.03280347,47.9700428 8.01776137,47.9866682 C7.97629663,48.0322891 7.93364436,48.0775142 7.88950767,48.1214528 C6.41656932,49.5945827 4.01953138,49.5947807 2.54639511,48.1214528 C1.07325884,46.6483228 1.07325884,44.2514931 2.54639511,42.7783632 C2.59043284,42.7342267 2.63555915,42.6915746 2.68118025,42.65011 C2.69760781,42.6352659 2.71324368,42.6197291 2.7279889,42.6034005 L5.03665449,40.6359616 C5.33987158,40.377674 5.37619033,39.9225534 5.11780267,39.6194366 C4.85951396,39.3162208 4.40419353,39.2798033 4.10127333,39.5382888 L1.72472035,41.5636198 C1.69493304,41.5888548 1.66771871,41.6163659 1.64297841,41.6458562 C1.60359186,41.6826696 1.56489803,41.7201757 1.52650109,41.7585725 C-0.508833697,43.7939975 -0.508833697,47.1060164 1.52650109,49.1414414 C2.54421797,50.158956 3.88108468,50.6679112 5.21795139,50.6679112 C6.55471914,50.6679112 7.89158585,50.158956 8.90930273,49.1413424 C8.94700694,49.1035394 8.98401843,49.0652416 9.02033718,49.0266469 C9.05032242,49.001313 9.07832844,48.973406 9.10415731,48.943124 L20.9258631,35.0711009 L28.2421628,42.3873692 C28.6614614,42.806666 29.2123783,43.0163638 29.7631963,43.0163638 C30.3140143,43.0163638 30.8648323,42.806666 31.2842298,42.3873692 L33.5467795,40.1248292 C34.3520267,39.3195855 34.381814,38.0307205 33.6407926,37.186882 L42.8828771,29.3752161 C43.1869848,29.1181161 43.2251838,28.6631934 42.9681816,28.358988 C42.7109815,28.0549806 42.2560569,28.0168807 41.9518502,28.2736839 L32.6228778,36.1588776 L14.5090217,18.0450992 L27.9799157,2.10746802 C28.3189567,1.70638004 28.7962465,1.46451993 29.2893701,1.44383713 C29.6967934,1.42612315 30.0678978,1.56476719 30.3354889,1.83235709 L30.5505315,2.04739884 L22.6307665,9.86569511 C22.6296779,9.86668471 22.6284904,9.86787224 22.6274018,9.86896081 C21.5296253,10.9667326 21.5296253,12.7530733 22.6275008,13.8509441 C23.7252772,14.9486169 25.5116257,14.9486169 26.6094022,13.8509441 L28.6716544,11.7886017 C29.2071334,11.253125 30.0784867,11.253125 30.6139657,11.7886017 C31.1471686,12.3217034 31.1489499,13.1911726 30.6201013,13.7244722 L30.0326676,14.3119033 C29.1236101,15.2210559 28.9449852,16.6282779 29.598228,17.7338676 C29.7182679,17.937133 29.8644336,18.1255543 30.0328656,18.2941835 C31.130642,19.3918563 32.9168915,19.3919552 34.0148659,18.2940845 L36.0811756,16.2276848 C36.6166546,15.6967603 37.4860286,15.6985415 38.0192315,16.2317422 C38.2786088,16.4911183 38.4215087,16.8359966 38.4215087,17.2028441 C38.4215087,17.5697907 38.2786088,17.9146689 38.0191325,18.1740451 L37.4379335,18.7553406 C36.340157,19.8531124 36.340157,21.6394531 37.4379335,22.7372249 C37.9698499,23.2690401 38.6769276,23.561865 39.4290326,23.561865 C40.1811376,23.561865 40.8882153,23.2690401 41.4200328,22.7372249 L46.3302891,17.8270886 L48.8357885,20.3325773 C49.1033796,20.6001672 49.2413314,20.9717649 49.2243101,21.3787905 C49.2036272,21.871912 48.9616671,22.3491998 48.5605774,22.6881404 L45.3695739,25.385316 C45.0654661,25.6424161 45.0272671,26.0973387 45.2842693,26.4015441 C45.5414694,26.7055516 45.996394,26.7438494 46.3006007,26.4867493 L49.4915053,23.7896726 C50.1999685,23.1908611 50.6277777,22.3342567 50.665185,21.4391566 C50.6993267,20.6240167 50.4118444,19.8688471 49.8555836,19.3125887 Z M32.0719609,37.6476434 L32.5269844,38.102665 C32.803383,38.3789634 32.803383,38.8285422 32.5269844,39.1049396 L30.2644347,41.3674796 C29.9882341,41.643877 29.5384555,41.643877 29.2621558,41.3674796 L9.30039735,21.4057078 C9.02409771,21.1294094 9.02409771,20.6798306 9.30039735,20.4034332 L11.562947,18.1408932 C11.7010969,18.002645 11.8825917,17.9335704 12.0640865,17.9335704 C12.2455813,17.9335704 12.4270761,18.002645 12.565226,18.1408932 L13.0202495,18.5959148 L32.0719609,37.6476434 Z M40.4000398,21.7172363 C40.1406625,21.9767114 39.7957828,22.1195118 39.4289336,22.1195118 C39.0620845,22.1195118 38.7172048,21.9766125 38.4577285,21.7171373 C37.9222495,21.1817596 37.9222495,20.3104101 38.4577285,19.7749334 L39.0388286,19.1937368 C39.570745,18.6619217 39.8635712,17.954847 39.8635712,17.2026462 C39.8635712,16.4505444 39.570745,15.7435687 39.0389276,15.2116546 C38.4910784,14.6638078 37.7702451,14.3895875 37.0488181,14.3895875 C36.3306567,14.3895875 35.6120006,14.6614327 35.0632608,15.205618 L32.9948729,17.2740959 C32.4593939,17.8095726 31.5879417,17.8095726 31.0526606,17.2742938 C30.9699291,17.1916616 30.8983801,17.0994301 30.8397951,17.0001725 C30.521437,16.4613311 30.6088197,15.7751372 31.0523637,15.331595 L31.6418755,14.7419868 C32.7305476,13.644215 32.726886,11.8617337 31.6336618,10.7685142 C30.5357863,9.67084136 28.7496358,9.6707424 27.6516614,10.7685142 L25.5893102,12.8308565 C25.0539302,13.3664322 24.1824779,13.3663332 23.6470979,12.8309555 C23.1121137,12.2958746 23.1116189,11.4254157 23.6458114,10.8897411 L31.5701287,3.06689264 L45.3101971,16.8069021 L40.4000398,21.7172363 Z" id="Shape"></path>
                            <path d="M7.34890128,43.3189368 C6.29009663,42.2601423 4.56722125,42.2601423 3.50841659,43.3190415 C2.44961194,44.3779407 2.4497167,46.1007995 3.50841659,47.1594892 C4.0378713,47.688834 4.73316036,47.9535588 5.42865894,47.9535588 C6.12405276,47.9535588 6.81955133,47.6887293 7.34890128,47.1594892 C7.34890128,47.1594892 7.34890128,47.1594892 7.34900604,47.1594892 C8.40770594,46.1006947 8.4078107,44.3779407 7.34890128,43.3189368 Z M6.269459,46.0798478 C5.80579328,46.5432995 5.0515246,46.543509 4.5880684,46.0798478 C4.12450744,45.6163961 4.12450744,44.8621347 4.5880684,44.3985782 C4.81990126,44.1667475 5.12422772,44.0508846 5.42865894,44.0508846 C5.73309016,44.0508846 6.03762614,44.1667475 6.26935424,44.3984734 C6.7329152,44.8620299 6.7329152,45.6163961 6.269459,46.0798478 Z" id="Shape"></path>
                        </g>
                        <path d="M54,0 L0,54" id="Line-10" stroke="#FF8369" stroke-width="2" stroke-linecap="square"></path>
                    </g>
                </g>
            </g>
        </g>
    </g>
</svg>